<!DOCTYPE svg PUBLIC "-//W3C//DTD SVG 20010904//EN" "http://www.w3.org/TR/2001/REC-SVG-20010904/DTD/svg10.dtd">
<svg version="1.0" xmlns="http://www.w3.org/2000/svg" width="379px" height="771px" viewBox="0 0 3790 7710" preserveAspectRatio="xMidYMid meet">
<g id="layer101" fill="#232021" stroke="none">
 <path d="M0 3855 l0 -3855 1895 0 1895 0 0 3855 0 3855 -1895 0 -1895 0 0 -3855z"/>
 </g>
<g id="layer102" fill="#fefefe" stroke="none">
 <path d="M0 3855 l0 -3855 1895 0 1895 0 0 3855 0 3855 -1895 0 -1895 0 0 -3855z m2270 3662 c0 -12 -138 -204 -152 -213 -7 -4 -32 -7 -55 -5 -29 2 -45 -2 -48 -11 -2 -7 -6 -137 -9 -288 -3 -151 -8 -347 -11 -435 -2 -88 -7 -302 -9 -476 -5 -304 -5 -316 14 -332 17 -14 20 -30 20 -111 0 -81 -3 -97 -18 -108 -17 -12 -20 -34 -25 -199 -5 -164 -3 -190 11 -215 14 -23 16 -46 12 -114 -5 -85 -5 -85 -36 -94 l-31 -9 -7 -296 c-3 -163 -8 -334 -11 -381 -2 -47 -6 -287 -9 -535 -3 -247 -9 -614 -12 -815 l-7 -365 28 28 c60 59 148 57 199 -4 53 -63 37 -157 -31 -185 -85 -36 -175 56 -120 124 15 19 45 -12 40 -42 -11 -54 80 -54 93 -1 9 37 -9 70 -48 89 -31 16 -35 16 -70 0 -61 -28 -87 -112 -51 -164 25 -36 35 -46 70 -64 45 -23 80 -20 138 12 57 31 95 92 95 153 0 20 7 42 15 49 18 15 45 6 45 -15 0 -17 25 -21 35 -5 9 15 82 12 113 -4 37 -20 67 -55 82 -96 11 -32 10 -41 -9 -80 -11 -24 -21 -45 -21 -47 0 -2 20 -3 45 -3 l45 0 0 46 0 45 53 -3 52 -3 1 -40 0 -40 47 -3 47 -3 0 -49 0 -49 -47 -3 c-47 -3 -48 -4 -46 -33 1 -16 7 -39 12 -50 10 -22 17 -51 36 -165 13 -73 15 -80 34 -80 11 0 34 -20 55 -50 19 -27 46 -56 59 -65 20 -13 26 -28 31 -77 4 -34 11 -69 16 -78 4 -8 13 -60 19 -115 7 -55 16 -109 21 -120 5 -11 14 -65 20 -119 12 -104 25 -146 45 -146 6 0 22 -11 34 -24 20 -21 21 -27 10 -48 -25 -46 -53 -78 -70 -78 -32 0 -106 -85 -143 -164 -20 -41 -36 -82 -36 -90 0 -40 -11 -46 -85 -46 -41 0 -76 -4 -79 -8 -3 -5 4 -23 15 -40 26 -44 24 -53 -17 -93 l-35 -34 -35 39 c-19 21 -34 41 -34 45 0 3 9 17 20 31 11 14 20 33 20 43 0 15 -11 17 -84 17 l-83 0 -7 41 c-15 94 -101 225 -165 252 -30 13 -81 76 -81 101 0 14 37 50 61 59 12 4 18 25 24 84 4 43 11 83 15 88 4 6 13 57 20 115 6 57 15 111 20 120 4 8 14 60 20 115 l13 100 48 47 c26 25 51 58 55 72 4 19 13 26 30 26 32 0 40 19 53 135 8 65 17 104 26 111 9 6 15 27 15 48 l0 36 -337 -2 -338 -3 -3 -23 c-2 -12 -12 -27 -23 -32 -27 -15 -26 -86 1 -115 27 -29 40 -77 27 -101 -25 -48 -50 -64 -98 -64 -51 0 -69 12 -94 60 -13 25 -13 33 -1 62 8 18 24 42 35 52 30 28 28 79 -5 103 -14 10 -26 27 -28 38 -3 19 -13 20 -339 23 l-337 2 0 -40 c0 -22 4 -40 8 -40 12 0 30 -58 37 -120 14 -127 15 -130 41 -130 16 0 28 -9 39 -30 8 -16 32 -45 53 -64 50 -47 54 -63 111 -436 9 -63 20 -122 23 -130 4 -8 9 -36 13 -62 3 -27 11 -48 18 -48 6 0 23 -12 38 -26 l28 -27 -30 -43 c-17 -25 -44 -50 -62 -58 -44 -18 -99 -81 -131 -152 -15 -32 -32 -67 -37 -76 -5 -10 -9 -29 -9 -43 0 -24 -2 -25 -74 -25 -41 0 -78 -5 -81 -10 -3 -6 4 -28 16 -50 l23 -41 -37 -37 -37 -37 -38 38 -37 38 22 40 c13 23 20 45 17 50 -3 5 -41 9 -84 9 -79 0 -80 0 -86 28 -13 58 -28 99 -56 149 -30 54 -98 123 -121 123 -12 0 -77 82 -77 97 0 9 45 49 63 56 8 3 17 23 21 44 3 21 8 49 11 63 2 14 11 70 20 125 8 55 17 109 19 120 8 39 37 200 40 225 1 14 4 30 4 37 1 7 21 29 43 50 23 21 48 52 55 70 10 23 21 33 41 35 28 3 28 4 43 115 10 75 21 117 33 130 9 11 17 34 17 51 0 32 0 32 -51 32 l-50 0 3 52 3 52 45 0 45 1 3 42 3 43 50 0 49 0 0 -45 0 -45 45 0 c49 0 51 3 30 40 -51 89 33 208 139 198 22 -3 48 -8 57 -12 12 -5 18 -1 22 13 3 13 13 21 26 21 17 0 21 -6 21 -35 0 -19 11 -59 24 -89 20 -46 33 -60 78 -85 29 -17 63 -31 74 -31 56 0 143 61 146 102 5 82 -7 115 -52 138 -36 19 -43 19 -74 6 -42 -18 -59 -47 -51 -87 14 -62 91 -59 97 4 4 42 38 45 52 5 8 -22 5 -33 -17 -61 -27 -36 -64 -49 -113 -39 -53 10 -83 102 -55 169 28 67 130 88 197 41 27 -20 40 -24 44 -15 5 11 -3 506 -14 897 -3 91 -10 458 -15 815 -6 358 -11 651 -11 653 0 1 -10 2 -23 2 -40 0 -47 18 -47 116 0 69 4 95 15 104 12 10 15 45 15 198 l0 186 -26 21 c-23 19 -25 26 -26 109 -1 79 1 91 21 112 21 22 22 27 17 216 -3 106 -10 445 -16 752 -5 318 -14 564 -19 569 -5 5 -28 7 -52 5 l-42 -4 -78 106 c-43 58 -79 110 -79 115 0 7 160 10 460 10 253 0 460 -4 460 -8z"/>
 <path d="M1217 2440 c-35 -11 -57 -28 -57 -47 0 -10 6 -8 22 7 24 22 55 25 91 9 45 -20 58 -73 32 -131 -6 -16 0 -18 64 -18 41 0 71 4 71 10 0 8 -14 14 -22 8 -10 -6 -48 26 -48 40 -1 29 -37 100 -57 110 -31 16 -67 20 -96 12z"/>
 <path d="M2314 2429 c-28 -14 -54 -61 -54 -98 0 -27 -4 -31 -40 -41 -62 -17 -48 -30 31 -30 64 0 70 2 64 18 -19 49 -17 78 10 110 45 53 121 35 138 -33 3 -15 5 -13 6 8 2 44 -38 77 -91 76 -24 0 -52 -5 -64 -10z"/>
 <path d="M1223 2369 c-7 -7 -13 -17 -13 -23 0 -5 -7 -17 -15 -26 -14 -15 -14 -19 1 -30 18 -16 39 -6 61 27 12 17 11 23 -4 42 -14 18 -20 20 -30 10z"/>
 <path d="M2360 2355 c-16 -19 -5 -49 25 -65 20 -11 27 -11 40 0 13 11 13 15 2 29 -8 9 -17 24 -20 34 -8 21 -30 22 -47 2z"/>
 <path d="M1696 2284 l-18 -26 28 4 c21 2 30 9 32 26 5 30 -18 28 -42 -4z"/>
 <path d="M1884 2294 c3 -9 6 -20 6 -25 0 -5 11 -9 25 -9 26 0 26 0 8 25 -20 27 -49 34 -39 9z"/>
 <path d="M851 1736 c-14 -14 -22 -28 -19 -31 3 -3 75 -4 161 -3 l156 3 -19 25 c-18 24 -24 25 -137 28 -116 4 -118 3 -142 -22z"/>
 <path d="M2494 1733 l-26 -28 81 -3 c45 -2 117 -2 162 0 l81 3 -22 28 c-21 27 -23 27 -136 27 -113 0 -115 -1 -140 -27z"/>
 <path d="M775 1620 c-4 -6 -11 -37 -16 -68 -5 -31 -12 -66 -14 -77 -3 -11 -12 -65 -20 -120 -8 -55 -17 -111 -20 -125 -33 -173 -34 -172 23 -168 l47 3 7 65 c4 36 12 124 18 195 5 72 13 150 16 175 4 25 7 63 8 85 1 34 -2 40 -21 43 -11 2 -24 -2 -28 -8z"/>
 <path d="M905 1620 c-3 -5 -10 -81 -16 -167 -5 -87 -13 -178 -19 -203 -5 -25 -12 -78 -16 -117 l-6 -73 137 0 137 0 -5 73 c-3 39 -10 117 -16 172 -6 55 -14 150 -19 210 l-7 110 -82 3 c-48 2 -84 -1 -88 -8z"/>
 <path d="M1157 1623 c-5 -9 27 -435 39 -520 l6 -43 49 0 49 0 -6 43 c-4 23 -11 62 -16 87 -5 25 -18 99 -28 165 -41 261 -43 270 -67 273 -11 2 -23 -1 -26 -5z"/>
 <path d="M2415 1603 c-3 -16 -10 -41 -15 -58 -5 -16 -14 -75 -20 -130 -6 -55 -15 -109 -20 -120 -8 -18 -30 -178 -30 -218 0 -13 9 -17 45 -17 29 0 45 4 46 13 1 16 16 159 28 267 5 47 12 131 16 188 l7 102 -26 0 c-20 0 -27 -6 -31 -27z"/>
 <path d="M2546 1593 c-3 -21 -8 -85 -11 -143 -4 -58 -10 -121 -15 -140 -5 -19 -11 -84 -15 -143 l-7 -108 133 3 134 3 1 40 c0 22 -3 51 -7 65 -7 21 -19 160 -33 366 -7 94 -7 94 -96 94 l-78 0 -6 -37z"/>
 <path d="M2795 1620 c-4 -6 -3 -34 1 -63 4 -29 9 -65 10 -82 8 -123 34 -383 39 -397 5 -13 19 -18 51 -18 42 0 44 1 44 30 0 16 -4 39 -10 52 -5 13 -17 73 -25 133 -9 61 -18 121 -20 135 -3 14 -10 63 -16 110 -6 47 -16 91 -22 98 -12 15 -43 16 -52 2z"/>
 </g>

</svg>