<!DOCTYPE svg PUBLIC "-//W3C//DTD SVG 20010904//EN" "http://www.w3.org/TR/2001/REC-SVG-20010904/DTD/svg10.dtd">
<svg version="1.0" xmlns="http://www.w3.org/2000/svg" width="313px" height="629px" viewBox="0 0 3130 6290" preserveAspectRatio="xMidYMid meet">
<g id="layer101" fill="#221f20" stroke="none">
 <path d="M0 3145 l0 -3145 1565 0 1565 0 0 3145 0 3145 -1565 0 -1565 0 0 -3145z"/>
 </g>
<g id="layer102" fill="#fdfdfd" stroke="none">
 <path d="M0 3145 l0 -3145 1565 0 1565 0 0 3145 0 3145 -1565 0 -1565 0 0 -3145z m1897 2812 c-3 -7 -29 -48 -58 -90 -52 -73 -56 -76 -98 -79 l-44 -3 -2 -65 c-2 -36 -6 -297 -10 -582 -7 -467 -6 -518 9 -539 24 -36 22 -143 -4 -169 -18 -18 -20 -33 -20 -164 0 -86 4 -147 10 -151 6 -3 10 -39 10 -80 0 -74 -7 -89 -40 -90 -16 0 -18 -89 -33 -1175 l-6 -415 108 -102 108 -102 67 20 c42 13 69 27 72 37 28 86 65 132 135 168 91 45 181 29 296 -54 57 -41 61 -47 52 -70 -15 -40 -19 -43 -40 -31 -28 15 -32 7 -25 -46 6 -35 11 -45 26 -45 11 0 24 -10 31 -22 6 -13 27 -39 45 -59 34 -35 35 -39 73 -267 37 -222 40 -232 70 -262 l31 -31 -24 -37 c-13 -20 -32 -39 -42 -40 -45 -9 -106 -94 -134 -189 l-13 -43 -59 0 c-32 0 -58 -2 -58 -5 0 -4 7 -20 16 -37 15 -29 15 -31 -12 -59 l-28 -29 -30 30 c-30 29 -30 30 -13 59 9 16 17 32 17 35 0 3 -29 6 -65 6 -57 0 -65 2 -65 19 0 55 -100 211 -136 211 -8 0 -26 19 -41 41 l-27 42 31 26 c29 25 32 35 56 176 52 300 56 314 93 357 18 20 37 46 44 57 6 12 19 21 29 21 15 0 20 14 29 82 17 119 20 111 -39 106 -61 -6 -96 -30 -128 -88 -19 -34 -25 -64 -32 -159 -4 -64 -12 -130 -17 -147 -52 -171 -219 -260 -364 -196 l-48 21 0 -92 c0 -51 7 -132 15 -182 8 -49 15 -93 15 -97 0 -5 9 -8 20 -8 10 0 24 -9 30 -21 7 -11 27 -38 46 -59 33 -36 35 -43 74 -270 39 -232 39 -233 72 -260 l33 -28 -31 -38 c-17 -22 -35 -37 -39 -36 -10 5 -63 -47 -90 -88 -23 -37 -49 -104 -54 -140 0 -5 -28 -10 -61 -10 -33 0 -60 -2 -60 -5 0 -4 7 -20 16 -37 15 -29 15 -31 -12 -59 l-28 -29 -30 30 c-30 29 -30 30 -13 59 9 16 17 32 17 35 0 3 -29 6 -65 6 -49 0 -65 3 -65 14 0 59 -107 226 -145 226 -7 0 -24 16 -36 37 l-23 36 31 26 c30 25 32 32 67 241 46 277 42 261 65 276 11 8 29 30 41 50 13 19 32 39 44 44 19 7 24 23 38 111 9 57 15 127 13 154 -1 28 -3 65 -4 83 l-1 32 -42 -21 c-82 -42 -211 -20 -274 48 -72 77 -99 154 -109 310 -8 127 -31 179 -95 211 -28 14 -59 22 -80 20 -40 -3 -39 0 -20 -115 10 -61 15 -73 31 -73 10 0 19 -4 19 -9 0 -5 20 -32 46 -59 l45 -51 39 -238 c22 -131 40 -239 40 -240 0 -2 5 -3 10 -3 6 0 19 -9 30 -20 l20 -20 -26 -40 c-15 -22 -35 -40 -45 -40 -36 0 -116 -118 -134 -198 -7 -32 -7 -32 -66 -32 -63 0 -69 -6 -43 -46 16 -24 16 -26 -11 -54 -27 -28 -28 -28 -51 -12 -32 23 -38 47 -20 74 9 12 16 26 16 30 0 5 -29 8 -64 8 l-64 0 -6 34 c-13 70 -98 196 -133 196 -7 0 -25 19 -40 41 l-27 42 30 26 c31 25 32 31 70 260 38 230 40 236 71 264 17 16 37 42 43 58 7 17 20 29 31 29 23 0 25 4 33 63 l7 48 -24 -16 c-24 -15 -26 -15 -41 7 -26 37 -19 51 47 95 84 57 126 73 192 73 101 0 184 -59 221 -157 10 -26 19 -49 20 -51 1 -2 34 -12 72 -21 l70 -18 48 51 c27 28 73 72 103 97 l54 46 -2 254 c-5 652 -20 1332 -30 1342 -6 6 -11 7 -11 3 0 -5 -7 -3 -15 4 -17 14 -22 155 -5 165 6 4 10 65 10 149 0 130 -2 145 -20 161 -16 15 -20 31 -20 90 0 54 4 76 16 86 14 12 15 61 9 509 -4 272 -10 536 -14 585 l-6 90 -42 5 c-37 4 -46 11 -85 65 -24 33 -52 72 -62 88 l-18 27 362 0 c295 0 361 -2 357 -13z"/>
 <path d="M1376 2208 c-59 -58 -87 -94 -94 -121 -19 -70 20 -141 85 -153 39 -7 89 11 103 37 14 25 13 306 0 314 -6 4 -48 -31 -94 -77z"/>
 <path d="M1610 2131 l0 -160 26 -20 c69 -54 174 5 174 98 0 16 -4 41 -10 55 -10 26 -166 186 -181 186 -5 0 -9 -72 -9 -159z"/>
 <path d="M1130 2096 c0 -79 3 -83 58 -76 39 4 47 9 48 26 1 12 4 32 7 46 6 22 2 26 -36 37 -23 7 -50 15 -59 17 -16 5 -18 -2 -18 -50z"/>
 <path d="M1897 2134 c-27 -7 -50 -14 -52 -16 -2 -2 -1 -24 2 -50 l5 -46 47 -4 c25 -3 47 -4 48 -4 4 2 7 125 3 129 -3 2 -27 -2 -53 -9z"/>
 <path d="M778 2072 c-59 -2 -90 -7 -98 -17 -23 -28 0 -36 100 -34 113 2 129 7 103 35 -16 16 -30 19 -105 16z"/>
 <path d="M2285 2072 c-66 -3 -112 -22 -100 -42 8 -13 235 -8 235 6 0 31 -39 41 -135 36z"/>
 <path d="M1228 1984 c-3 -3 -20 -6 -38 -6 -41 -1 -47 -19 -25 -69 28 -61 37 -63 79 -20 l38 39 -18 31 c-18 31 -26 36 -36 25z"/>
 <path d="M1823 1956 c-16 -35 -16 -36 8 -58 57 -55 56 -55 86 6 15 30 24 58 21 61 -3 3 -18 8 -34 11 -16 3 -37 7 -46 10 -13 4 -22 -5 -35 -30z"/>
 <path d="M611 1918 c-39 -189 -70 -371 -64 -380 7 -12 61 -9 69 3 9 15 45 400 39 417 -2 6 -11 12 -19 12 -10 0 -18 -18 -25 -52z"/>
 <path d="M720 1968 c-25 -256 -38 -423 -34 -430 6 -10 191 -11 197 0 3 6 -11 183 -30 357 l-8 70 -62 3 c-35 2 -63 2 -63 0z"/>
 <path d="M907 1963 c-3 -6 37 -415 42 -431 1 -2 16 -2 34 0 32 3 32 3 30 54 -1 29 -11 96 -22 150 -11 55 -23 119 -26 144 -4 25 -9 52 -10 60 -2 8 -4 18 -4 23 -1 4 -10 7 -20 7 -11 0 -22 -3 -24 -7z"/>
 <path d="M2131 1918 c-6 -29 -15 -80 -21 -113 -10 -58 -16 -94 -25 -145 -3 -14 -8 -49 -11 -77 l-5 -53 30 0 c23 0 34 6 40 23 12 28 44 395 36 407 -16 25 -34 7 -44 -42z"/>
 <path d="M2240 1967 c0 -1 -9 -97 -20 -212 -11 -115 -16 -213 -11 -218 4 -4 50 -6 102 -5 87 3 94 4 92 23 -15 188 -35 393 -38 403 -3 8 -25 12 -65 12 -33 0 -60 -1 -60 -3z"/>
 <path d="M2435 1960 c-6 -10 -4 -56 10 -200 22 -222 23 -224 63 -228 29 -3 32 -1 31 25 0 15 -15 113 -32 218 -26 151 -36 190 -49 193 -9 2 -19 -2 -23 -8z"/>
 <path d="M1440 1897 c-14 -6 -26 -11 -26 -11 -1 -1 -5 -20 -9 -43 -8 -50 1 -54 44 -17 22 18 31 35 31 55 0 32 -3 33 -40 16z"/>
 <path d="M1607 1888 c-4 -15 3 -30 28 -55 39 -39 60 -43 51 -10 -3 12 -6 32 -6 45 0 15 -6 22 -19 22 -11 0 -23 5 -26 10 -10 16 -22 11 -28 -12z"/>
 <path d="M1275 1860 c-42 -43 -41 -50 14 -69 61 -20 68 -16 74 41 4 28 5 53 4 54 -1 1 -13 5 -27 9 -20 5 -33 -2 -65 -35z"/>
 <path d="M1738 1893 c-14 -4 -17 -13 -13 -46 2 -23 4 -48 4 -54 1 -7 10 -13 21 -13 24 0 100 30 100 39 0 11 -75 81 -85 80 -6 -1 -18 -3 -27 -6z"/>
 <path d="M1440 1298 l-21 -23 113 -5 c139 -6 146 -5 117 26 -20 22 -31 24 -105 24 -73 0 -86 -3 -104 -22z"/>
 <path d="M1375 1188 c-2 -13 -9 -50 -15 -83 -5 -33 -12 -70 -14 -81 -2 -12 -7 -38 -10 -59 -4 -20 -8 -40 -10 -44 -4 -6 -11 -53 -19 -126 -2 -16 5 -21 31 -23 26 -3 34 1 41 20 7 19 42 361 41 406 0 22 -39 13 -45 -10z"/>
 <path d="M1480 1196 c0 -8 -6 -74 -14 -148 -8 -73 -17 -166 -21 -205 l-6 -73 100 0 c55 0 102 3 104 8 2 4 -4 88 -14 187 -10 99 -18 195 -18 213 l-1 32 -65 0 c-49 0 -65 -3 -65 -14z"/>
 <path d="M1674 1128 c3 -46 8 -96 10 -113 2 -16 7 -67 11 -112 8 -101 9 -105 18 -120 11 -18 56 -16 63 2 4 8 -8 95 -25 193 -18 97 -34 186 -36 197 -2 11 -4 23 -4 28 -1 4 -11 7 -22 7 -21 0 -22 -3 -15 -82z"/>
 </g>

</svg>