<!DOCTYPE svg PUBLIC "-//W3C//DTD SVG 20010904//EN" "http://www.w3.org/TR/2001/REC-SVG-20010904/DTD/svg10.dtd">
<svg version="1.0" xmlns="http://www.w3.org/2000/svg" width="852px" height="978px" viewBox="0 0 8520 9780" preserveAspectRatio="xMidYMid meet">
<g id="layer101" fill="#000000" stroke="none">
 <path d="M0 4890 l0 -4890 4260 0 4260 0 0 4890 0 4890 -4260 0 -4260 0 0 -4890z"/>
 </g>
<g id="layer102" fill="#ffffff" stroke="none">
 <path d="M0 4890 l0 -4890 4260 0 4260 0 0 4890 0 4890 -4260 0 -4260 0 0 -4890z m4101 4845 c139 -24 251 -70 352 -146 4 -3 -11 -174 -33 -380 -44 -412 -93 -999 -111 -1324 -20 -380 1 -1031 41 -1238 26 -135 128 -297 305 -485 108 -114 233 -225 246 -217 5 4 9 0 9 -8 0 -14 222 -180 343 -256 37 -24 102 -58 145 -76 271 -114 495 -267 807 -552 49 -46 97 -83 107 -83 9 0 55 20 102 45 47 25 111 52 144 60 52 14 63 14 101 0 24 -8 56 -26 72 -39 51 -43 125 -46 286 -11 79 17 84 17 160 -1 l78 -19 7 -44 c11 -66 33 -93 71 -89 27 2 33 8 35 30 6 55 87 85 185 68 111 -20 276 -93 338 -151 26 -24 28 -31 23 -72 -4 -25 -4 -61 0 -79 5 -30 12 -36 54 -51 26 -9 65 -19 87 -23 55 -9 80 -26 109 -76 26 -45 27 -54 27 -231 0 -85 -1 -89 -31 -118 -17 -18 -30 -32 -28 -34 2 -1 12 -7 22 -12 11 -6 29 -37 40 -69 15 -41 27 -60 41 -62 31 -6 45 -22 71 -80 13 -29 37 -74 54 -98 18 -27 30 -58 30 -78 0 -49 -46 -195 -69 -220 -26 -28 -26 -49 1 -197 19 -107 20 -125 8 -172 -7 -29 -14 -108 -15 -176 -2 -103 -5 -126 -19 -136 -18 -13 -124 -28 -147 -21 -8 2 -26 7 -41 10 l-28 6 0 -80 c0 -45 -5 -100 -11 -124 l-10 -43 -57 5 c-31 2 -99 14 -149 27 -60 15 -93 19 -93 12 0 -23 -53 -86 -96 -113 -29 -18 -44 -35 -44 -49 0 -11 23 -46 52 -78 50 -56 52 -57 104 -57 65 0 103 -16 110 -47 3 -12 1 -52 -5 -89 -11 -59 -10 -71 9 -121 l20 -55 -29 -51 c-39 -71 -46 -105 -26 -127 11 -12 15 -31 13 -56 -3 -38 -4 -39 -63 -58 -107 -33 -121 -47 -96 -94 4 -9 11 -31 14 -48 5 -28 2 -33 -29 -47 -22 -11 -60 -17 -102 -17 -64 0 -70 -2 -90 -30 -12 -16 -22 -33 -22 -37 0 -4 -7 -16 -15 -26 -12 -17 -19 -18 -69 -7 -42 9 -70 23 -113 59 -56 47 -67 52 -124 65 -43 10 -43 -18 1 -103 55 -106 52 -136 -19 -160 -60 -20 -89 -14 -122 24 -17 19 -39 35 -50 35 -18 0 -23 -12 -43 -102 -6 -26 -8 -27 -57 -21 l-51 6 17 -27 c14 -21 17 -40 12 -89 -5 -57 -9 -65 -45 -97 -36 -32 -41 -42 -56 -122 -20 -103 -53 -214 -73 -245 -19 -29 -47 -37 -77 -21 -13 7 -42 23 -66 36 -23 13 -43 22 -45 20 -2 -2 3 -30 11 -63 22 -95 21 -101 -30 -114 -75 -18 -90 -15 -132 32 -79 88 -107 88 -126 -4 -11 -56 -14 -60 -48 -69 -72 -20 -109 -7 -162 54 -25 29 -48 29 -48 0 0 -47 -64 -94 -129 -94 -91 0 -121 46 -121 184 l0 84 -45 26 c-41 23 -47 23 -51 8 -14 -44 -26 -69 -43 -90 -16 -21 -22 -23 -66 -17 -76 12 -104 44 -115 132 -5 40 -16 88 -24 108 -14 33 -19 36 -48 33 -37 -3 -38 -7 -23 -124 l7 -61 -33 -12 c-19 -8 -71 -32 -116 -54 l-82 -41 6 -61 c4 -49 1 -71 -16 -110 l-21 -48 -86 7 c-54 4 -92 2 -105 -5 -11 -5 -35 -34 -53 -62 -46 -71 -72 -93 -143 -122 -59 -23 -63 -24 -112 -9 -27 8 -54 20 -58 27 -4 6 -6 42 -4 79 4 88 -6 104 -68 112 -37 5 -53 13 -65 31 -11 16 -22 22 -34 19 -52 -17 -72 -28 -72 -38 0 -7 -19 -38 -42 -70 l-43 -57 -50 6 c-66 9 -112 29 -119 52 -3 10 1 59 8 108 13 81 12 91 -2 100 -9 6 -29 22 -44 37 -42 40 -37 70 23 133 48 51 51 57 46 95 -3 22 -18 60 -33 84 l-28 45 -35 -15 c-57 -24 -79 -51 -92 -113 -10 -50 -19 -63 -80 -122 -37 -37 -95 -85 -129 -108 l-60 -41 -39 19 c-21 11 -56 43 -76 71 -21 28 -42 49 -49 47 -6 -2 -25 -28 -43 -58 -41 -71 -66 -95 -120 -115 -36 -14 -51 -15 -75 -6 -28 10 -32 8 -67 -29 -29 -29 -46 -39 -70 -39 -47 0 -99 25 -112 54 -10 21 -17 24 -38 19 -14 -3 -33 -9 -41 -13 -8 -4 -33 -11 -55 -14 -37 -6 -43 -4 -79 33 -32 33 -43 38 -58 30 -10 -5 -18 -14 -18 -19 0 -6 -8 -28 -17 -51 -18 -40 -19 -41 -58 -34 -110 18 -99 21 -144 -33 -23 -27 -57 -57 -75 -67 -32 -18 -35 -18 -60 -1 -15 9 -41 46 -58 81 l-32 65 -62 0 c-82 0 -118 14 -140 55 -16 29 -16 40 -6 85 27 117 13 150 -64 150 -25 0 -54 10 -85 31 -50 32 -70 69 -84 153 -6 37 -4 41 36 76 56 48 51 77 -23 115 -138 72 -155 95 -123 172 8 19 15 37 15 38 0 2 -21 6 -47 10 -141 20 -214 96 -232 239 l-6 48 -55 17 c-62 20 -159 82 -177 114 -7 12 -12 37 -13 56 0 29 9 43 50 83 28 26 50 51 50 54 0 3 -14 24 -31 45 -28 36 -30 44 -24 88 9 68 36 108 78 116 20 4 44 2 55 -4 12 -6 29 -11 39 -11 24 0 59 56 68 108 l7 42 -85 0 c-83 0 -85 -1 -91 -26 -4 -14 -18 -43 -32 -65 -29 -46 -50 -49 -110 -14 -49 29 -50 29 -156 -37 -95 -59 -130 -62 -158 -15 -11 17 -20 50 -20 72 0 68 -7 82 -41 77 -71 -10 -109 28 -109 111 0 44 1 45 55 72 42 22 55 34 55 51 0 40 -30 64 -92 73 -96 13 -131 49 -126 128 3 42 7 49 38 67 18 11 52 23 74 26 54 7 61 34 14 53 -46 19 -61 40 -53 75 6 28 4 29 -35 35 -59 8 -89 31 -116 93 -21 48 -30 57 -86 85 -85 43 -159 91 -207 134 l-40 37 19 39 c12 22 34 46 53 55 69 36 63 60 -15 69 -96 10 -98 11 -97 53 0 20 6 53 13 72 11 30 22 39 77 61 54 22 64 30 67 52 3 23 -4 32 -48 59 -51 31 -51 32 -45 72 10 61 36 99 84 123 24 12 46 24 48 27 3 3 -11 20 -30 39 -49 49 -55 92 -22 157 36 72 89 88 163 51 20 -10 59 -23 86 -30 45 -11 50 -10 63 8 23 34 96 71 139 71 52 0 92 -26 134 -88 30 -44 40 -52 68 -52 48 0 41 27 -11 41 -64 18 -77 38 -77 125 l0 74 -49 24 c-64 33 -106 69 -121 106 -18 43 10 86 87 130 60 34 61 36 73 92 12 52 17 61 59 89 82 55 135 27 197 -104 15 -31 32 -56 38 -56 31 4 45 -2 40 -16 -4 -10 0 -15 14 -15 44 0 52 10 52 66 0 52 1 54 51 94 56 44 98 52 136 25 32 -22 73 -10 73 21 0 14 12 47 26 75 21 43 34 55 79 75 57 27 101 26 156 -2 28 -14 89 -79 89 -94 0 -19 33 -40 65 -40 45 0 60 26 45 78 -24 87 -1 142 70 163 58 18 89 0 156 -89 55 -73 58 -75 67 -51 17 46 24 54 71 83 43 27 49 28 86 17 77 -23 104 -86 71 -166 -21 -50 -21 -55 -7 -84 21 -39 44 -51 101 -51 66 0 270 108 394 209 272 219 667 607 763 747 33 48 91 313 107 494 32 351 33 448 20 1200 -7 410 -13 1042 -14 1405 0 741 -6 682 77 761 87 84 137 96 289 69z"/>
 <path d="M4418 5803 c-10 -2 -18 -13 -18 -22 0 -35 188 -279 320 -416 55 -56 113 -151 201 -328 135 -268 208 -351 395 -445 52 -26 174 -66 181 -59 1 2 -33 108 -77 237 -74 223 -136 386 -174 457 -18 35 -311 334 -386 394 -182 146 -337 210 -442 182z"/>
 <path d="M4365 5353 c11 -77 45 -203 66 -244 41 -80 107 -135 184 -153 17 -4 38 -9 48 -12 41 -12 -128 288 -219 389 -24 27 -44 53 -44 58 0 5 -9 9 -21 9 -18 0 -20 -4 -14 -47z"/>
 <path d="M3588 5321 c-94 -37 -212 -151 -300 -291 -119 -190 -200 -369 -222 -492 -10 -55 13 -50 90 21 35 32 79 66 96 74 31 15 35 14 71 -6 23 -13 47 -38 58 -59 16 -30 25 -38 48 -38 16 0 36 9 47 21 36 40 130 2 249 -102 70 -60 136 -90 163 -72 8 4 23 31 34 58 29 74 20 308 -21 545 -36 210 -43 236 -76 280 -57 77 -141 98 -237 61z"/>
 <path d="M5518 5211 c10 -105 181 -559 299 -796 45 -89 205 -339 227 -353 6 -4 24 -11 40 -17 19 -7 36 -24 48 -50 31 -64 34 -68 49 -78 11 -7 28 0 62 26 72 55 85 56 124 11 18 -22 40 -56 49 -76 9 -21 21 -38 27 -38 5 0 30 18 54 41 48 44 56 45 131 4 23 -13 42 -23 42 -22 0 14 -33 179 -46 232 -23 96 -29 101 -97 81 -74 -21 -124 -20 -184 5 -85 35 -203 215 -203 309 0 26 32 58 72 73 20 7 16 35 -14 91 -14 25 -21 60 -22 99 l-2 61 -69 63 c-219 202 -394 320 -536 363 l-56 17 5 -46z"/>
 <path d="M4532 4660 c-41 -19 -43 -21 -37 -52 20 -95 193 -319 332 -429 61 -49 133 -87 133 -70 0 4 -7 46 -15 92 -37 214 -140 406 -240 450 -67 29 -124 32 -173 9z"/>
 <path d="M5123 4488 c5 -16 31 -172 47 -288 7 -47 23 -108 36 -137 29 -60 124 -154 234 -231 l75 -52 7 29 c4 15 17 36 28 46 20 18 22 18 66 -3 25 -12 49 -20 53 -17 5 2 10 38 13 79 3 48 11 85 22 102 18 26 18 27 -29 95 -71 103 -240 252 -350 307 -88 43 -208 85 -202 70z"/>
 <path d="M936 3711 c-3 -4 -1 -23 4 -42 19 -66 13 -96 -26 -125 -48 -37 -67 -75 -54 -109 17 -45 11 -74 -22 -111 -28 -29 -42 -36 -90 -43 -32 -4 -60 -10 -62 -12 -2 -2 -15 -39 -29 -82 -18 -56 -23 -79 -14 -81 32 -9 120 -26 135 -26 11 0 18 9 18 25 1 14 14 42 29 61 26 35 30 36 74 30 45 -6 47 -4 99 45 55 54 64 78 34 94 -68 38 -82 51 -82 79 0 47 22 106 47 126 22 17 24 24 18 64 -4 25 -19 61 -34 80 -27 37 -36 42 -45 27z"/>
 </g>

</svg>