<!DOCTYPE svg PUBLIC "-//W3C//DTD SVG 20010904//EN" "http://www.w3.org/TR/2001/REC-SVG-20010904/DTD/svg10.dtd">
<svg version="1.0" xmlns="http://www.w3.org/2000/svg" width="1600px" height="361px" viewBox="0 0 16000 3610" preserveAspectRatio="xMidYMid meet">
<g id="layer101" fill="#404041" stroke="none">
 <path d="M0 1805 l0 -1805 8000 0 8000 0 0 1805 0 1805 -8000 0 -8000 0 0 -1805z"/>
 </g>
<g id="layer102" fill="#4d4d4e" stroke="none">
 <path d="M0 2625 l0 -985 29 0 c17 0 32 4 36 9 3 5 20 7 39 4 19 -3 36 -1 40 5 4 6 13 9 21 5 9 -3 21 0 29 6 7 6 16 8 19 5 3 -3 12 -2 19 2 7 5 27 9 43 10 82 6 138 18 258 59 222 74 218 73 382 75 66 1 147 8 180 15 33 8 91 17 128 20 37 4 115 17 173 30 57 13 110 22 117 19 17 -6 213 12 228 22 16 9 129 12 149 3 8 -4 68 -24 134 -45 128 -41 182 -45 226 -15 14 9 48 22 75 29 53 13 163 65 255 120 30 19 84 41 120 49 36 8 78 21 93 29 16 8 33 14 38 14 5 0 30 16 56 37 73 56 127 75 228 83 49 4 95 4 100 0 6 -4 26 -10 45 -14 19 -3 98 -27 175 -52 108 -36 154 -46 199 -45 34 0 66 -4 74 -11 10 -9 71 -13 199 -15 180 -1 270 -9 259 -21 -8 -7 -405 -4 -418 4 -5 3 -35 3 -67 -1 -35 -4 -66 -3 -77 4 -34 19 -335 112 -344 106 -5 -3 -11 -1 -14 4 -4 5 -19 10 -34 11 -58 4 -128 3 -163 -2 -73 -11 -181 -85 -193 -133 -5 -21 -10 -24 -36 -19 -40 8 -150 -13 -189 -37 -52 -31 -40 -62 41 -103 20 -10 47 -29 59 -42 12 -13 28 -24 36 -24 7 0 13 -4 13 -9 0 -16 111 -131 125 -131 8 0 23 12 34 26 15 20 21 22 21 10 0 -9 7 -16 16 -16 8 0 12 -5 9 -10 -4 -6 -15 -8 -26 -5 -13 4 -19 2 -19 -9 0 -9 21 -22 53 -34 116 -43 188 -64 203 -58 8 3 12 2 9 -4 -3 -5 14 -23 37 -40 146 -105 175 -124 193 -125 13 -1 23 -12 29 -33 5 -17 29 -53 54 -79 24 -26 72 -83 105 -125 33 -43 64 -78 69 -78 4 0 8 -7 8 -15 0 -8 9 -20 20 -27 11 -7 20 -18 20 -25 0 -7 4 -13 8 -13 5 0 30 -14 56 -32 41 -27 51 -30 68 -19 12 8 24 9 31 3 7 -5 24 -12 38 -15 40 -10 100 -63 147 -130 24 -34 54 -74 68 -88 17 -18 22 -29 14 -34 -11 -7 -50 21 -50 37 0 4 -25 41 -55 82 -69 93 -111 121 -185 121 -40 0 -65 6 -90 22 -41 26 -44 23 -61 -66 -6 -36 -15 -73 -20 -81 -14 -25 -11 23 7 101 10 45 12 74 6 82 -113 145 -205 257 -211 257 -5 0 -11 9 -14 21 -3 11 -15 23 -26 26 -12 3 -21 12 -21 19 0 8 -7 17 -15 20 -8 4 -15 12 -15 20 0 12 -42 45 -136 105 -25 16 -46 24 -54 19 -16 -10 58 -141 165 -295 91 -129 93 -134 71 -115 -24 19 -117 159 -191 285 -32 55 -69 111 -82 124 -13 13 -23 29 -23 35 0 11 -209 89 -226 84 -5 -1 -20 4 -33 11 -22 12 -27 10 -67 -33 -24 -25 -44 -51 -44 -57 0 -12 -65 -4 -167 21 -24 5 -46 9 -50 8 -5 0 -15 1 -23 5 -8 3 -37 10 -65 17 -66 15 -191 74 -237 110 -20 17 -41 30 -45 30 -16 0 -105 -98 -99 -108 3 -5 -14 -32 -39 -60 -25 -27 -45 -57 -45 -65 0 -8 -24 -34 -52 -58 -29 -24 -65 -56 -81 -72 -25 -26 -32 -28 -80 -25 -81 7 -243 45 -342 81 -85 30 -97 32 -230 32 -77 0 -176 -6 -220 -13 -150 -24 -158 -24 -239 -2 -43 11 -88 27 -100 35 -11 8 -31 15 -44 15 -13 0 -53 16 -88 36 -62 35 -68 36 -147 33 -66 -3 -93 -9 -136 -31 -36 -19 -68 -28 -100 -28 -27 0 -76 -3 -110 -6 l-61 -7 0 -748 0 -749 8000 0 8000 0 0 800 0 800 -27 0 c-112 -1 -201 12 -247 37 -41 22 -64 27 -135 28 -80 2 -90 -1 -147 -32 -33 -18 -72 -33 -86 -33 -14 0 -36 -9 -50 -20 -14 -10 -60 -29 -103 -40 -43 -11 -87 -26 -97 -31 -14 -8 -25 -7 -41 3 -20 13 -109 35 -147 37 -8 1 -78 3 -154 6 -138 5 -141 4 -240 -29 -90 -31 -161 -47 -331 -77 -38 -6 -54 -5 -72 6 -41 28 -153 139 -153 153 0 8 -20 37 -45 64 -25 28 -42 54 -39 60 5 8 -57 70 -92 91 -7 4 -34 -7 -66 -28 -75 -50 -183 -89 -333 -120 -192 -41 -192 -41 -200 -16 -3 12 -13 21 -21 21 -8 0 -14 4 -14 9 0 4 -11 20 -24 34 -23 25 -24 25 -72 10 -161 -50 -226 -77 -242 -102 -9 -14 -20 -29 -24 -32 -5 -3 -30 -43 -57 -90 -60 -105 -197 -316 -211 -324 -21 -13 -8 12 39 74 48 62 194 298 207 334 12 33 -31 18 -114 -40 -45 -32 -81 -62 -82 -67 0 -5 -30 -41 -67 -80 -38 -40 -108 -123 -156 -185 l-89 -113 17 -74 c9 -41 15 -84 13 -97 -2 -12 -11 13 -21 58 -28 124 -25 121 -71 87 -21 -16 -45 -40 -52 -53 l-13 -24 2 30 c2 29 1 30 -40 29 -58 -1 -103 -34 -162 -119 -56 -80 -116 -141 -125 -127 -3 5 6 20 20 33 15 13 50 56 79 95 79 106 149 150 219 137 18 -4 34 1 49 15 12 11 37 27 55 36 17 9 32 23 32 31 0 8 4 15 8 15 5 0 60 63 122 140 62 77 117 140 121 140 5 0 11 15 15 34 4 24 11 34 22 33 10 0 55 25 102 57 116 80 130 91 130 110 0 9 6 13 15 10 21 -9 255 70 255 85 0 5 -15 12 -32 16 -29 7 -30 9 -10 12 12 3 22 12 22 21 1 14 3 14 12 -3 30 -53 45 -48 140 51 46 47 106 99 135 116 91 52 96 79 18 111 -74 29 -179 30 -300 2 -55 -12 -158 -33 -230 -45 -71 -12 -197 -42 -280 -65 -82 -23 -169 -46 -192 -50 -24 -4 -45 -11 -48 -15 -3 -5 -12 -7 -20 -4 -8 3 -19 2 -26 -2 -17 -10 -81 -15 -74 -5 2 5 26 12 52 16 27 4 52 9 57 12 5 4 25 8 46 9 20 2 99 22 176 44 121 36 316 82 394 95 128 20 164 27 196 38 21 6 39 18 42 25 5 16 -59 77 -107 101 -64 33 -149 44 -232 32 -75 -12 -351 -99 -401 -126 -31 -18 -64 -19 -74 -4 -3 6 -16 8 -28 5 -36 -11 -98 -14 -273 -16 -196 -2 -192 -3 -173 10 8 5 90 10 182 10 92 0 169 4 172 8 3 5 19 7 36 4 18 -3 40 2 56 13 18 12 39 15 68 12 37 -5 126 19 376 101 129 41 304 0 389 -92 14 -14 35 -26 47 -26 12 0 24 -4 26 -9 2 -6 36 -17 77 -25 45 -9 107 -33 160 -61 176 -94 213 -109 263 -109 26 0 48 -3 48 -8 0 -4 12 -8 26 -8 14 0 38 -9 53 -19 l28 -20 99 36 c54 19 106 38 114 41 8 3 18 4 23 4 4 -1 27 3 52 9 35 9 56 8 109 -5 36 -9 83 -17 103 -17 88 1 189 -5 198 -10 19 -12 114 -31 124 -25 5 4 13 1 16 -4 4 -6 17 -10 28 -9 12 1 30 -1 40 -6 9 -4 33 -4 52 -1 24 5 42 2 60 -10 15 -9 48 -18 74 -19 26 -1 53 -5 59 -9 7 -4 55 -6 107 -5 53 1 99 -1 102 -5 3 -3 16 -6 29 -6 12 0 73 -16 134 -35 156 -49 261 -75 317 -78 27 -2 53 -6 59 -9 5 -4 30 -10 54 -13 25 -4 56 -8 70 -10 14 -3 46 -6 73 -9 l47 -5 0 935 0 934 -8000 0 -8000 0 0 -985z m13030 -737 c0 -4 -6 -5 -13 -2 -7 2 -13 14 -13 25 0 19 1 19 13 3 7 -10 13 -21 13 -26z m-10035 -68 c-3 -5 -1 -10 4 -10 19 0 12 -15 -13 -26 -21 -10 -24 -9 -19 5 7 18 23 41 30 41 2 0 1 -4 -2 -10z m9136 -847 c-12 -20 -14 -14 -5 12 4 9 9 14 11 11 3 -2 0 -13 -6 -23z m-17 -45 c-4 -13 -8 -30 -9 -38 -1 -8 -5 -22 -9 -30 -4 -9 -6 -25 -5 -35 4 -36 -1 -56 -11 -50 -12 7 -13 67 -2 81 5 5 14 28 21 52 6 23 14 42 17 42 3 0 2 -10 -2 -22z m-17 -190 c-3 -8 -6 -5 -6 6 -1 11 2 17 5 13 3 -3 4 -12 1 -19z m10 -35 c-4 -3 -7 0 -7 7 0 7 3 10 7 7 3 -4 3 -10 0 -14z m33 -79 c11 -36 20 -74 19 -83 0 -9 -11 20 -24 64 -28 93 -26 85 -20 85 2 0 13 -30 25 -66z"/>
 <path d="M13392 1981 c-24 -12 -85 -61 -137 -111 -51 -49 -100 -90 -109 -90 -29 0 -26 -20 9 -58 36 -40 70 -58 81 -41 3 5 16 6 29 3 13 -3 29 -3 36 2 7 4 30 9 53 11 146 13 406 123 406 172 0 16 -51 59 -77 66 -15 3 -44 15 -66 25 -22 11 -43 17 -48 15 -4 -3 -9 0 -11 6 -2 6 -30 13 -63 15 -46 4 -70 0 -103 -15z"/>
 <path d="M14147 1984 c-4 -4 -24 -9 -45 -10 -32 -2 -112 -26 -204 -63 -16 -6 -28 -15 -28 -21 0 -15 71 -120 134 -198 28 -35 77 -84 109 -108 54 -40 61 -43 105 -38 125 15 264 64 280 98 8 18 16 22 41 18 24 -3 31 0 31 12 0 20 3 20 64 1 27 -8 63 -15 80 -16 17 0 108 -2 201 -4 94 -2 182 -6 196 -10 33 -8 187 57 223 94 l28 29 -23 15 c-40 25 -166 48 -297 53 -89 4 -164 14 -256 35 -72 17 -153 32 -181 34 -27 2 -83 11 -122 19 -40 9 -76 15 -80 14 -5 0 -15 1 -23 5 -93 35 -217 57 -233 41z"/>
 <path d="M2458 1892 c-10 -2 -18 -8 -18 -13 0 -6 -4 -8 -10 -4 -5 3 -17 1 -27 -5 -10 -5 -44 -19 -76 -31 -34 -12 -64 -31 -74 -45 -15 -23 -14 -26 7 -49 58 -62 205 -117 412 -153 105 -19 107 -19 137 0 38 24 67 78 49 90 -7 4 -17 8 -21 8 -4 0 -47 38 -95 84 -48 46 -103 91 -122 101 -33 17 -121 27 -162 17z"/>
 <path d="M1760 1881 c-8 -5 -17 -8 -21 -5 -4 2 -25 -2 -46 -10 -53 -18 -236 -55 -308 -61 -31 -3 -111 -16 -178 -30 -71 -14 -155 -25 -202 -25 -153 0 -365 -46 -365 -79 0 -20 75 -70 148 -98 l77 -29 220 8 c237 7 346 3 385 -17 14 -7 45 -16 70 -20 25 -4 50 -11 55 -15 24 -18 101 -35 202 -45 39 -4 48 0 100 44 82 69 113 104 183 206 l61 90 -38 16 c-139 59 -308 94 -343 70z"/>
 </g>
<g id="layer103" fill="#606061" stroke="none">
 <path d="M0 2638 c0 -535 4 -979 9 -987 6 -9 16 -11 32 -5 13 5 38 10 54 11 61 5 80 8 93 16 6 5 17 5 22 2 5 -3 16 -3 22 2 7 4 27 8 43 9 77 5 127 17 264 62 212 71 194 67 395 77 77 3 144 8 148 11 14 9 122 26 155 25 17 -1 34 3 37 8 3 5 15 7 26 4 11 -3 26 0 33 6 8 6 17 8 20 5 3 -4 14 -3 24 1 24 10 67 16 133 19 30 2 57 4 60 5 3 1 37 4 77 6 40 2 78 7 85 11 16 10 148 12 168 3 50 -23 251 -79 283 -79 22 0 51 8 65 18 34 23 59 34 94 38 26 4 93 37 223 110 83 47 97 52 168 64 34 5 63 14 65 20 2 5 14 10 27 10 13 0 34 12 47 28 24 28 122 82 149 82 9 0 19 3 22 6 10 10 177 11 183 2 3 -5 13 -8 22 -7 10 1 24 -1 32 -4 8 -3 81 -26 162 -51 104 -33 163 -46 205 -46 34 0 64 -5 71 -12 9 -9 66 -14 200 -15 200 -2 261 -8 244 -25 -13 -13 -383 -9 -448 6 -22 5 -34 3 -44 -9 -16 -19 -26 -19 -58 3 -15 10 -49 23 -76 30 -26 7 -67 21 -90 31 -40 19 -142 51 -181 58 -11 1 -38 6 -60 10 -100 17 -219 -6 -269 -52 -15 -14 -31 -25 -36 -25 -4 0 -17 -17 -28 -37 -17 -34 -24 -38 -53 -36 -19 1 -41 0 -49 -3 -8 -4 -31 -7 -51 -9 -43 -4 -119 -41 -119 -58 1 -23 25 -44 87 -76 46 -24 77 -51 123 -107 74 -90 94 -102 121 -78 10 9 19 24 20 33 0 10 4 7 10 -7 7 -18 14 -22 29 -17 11 3 20 2 20 -4 0 -12 -36 -24 -49 -16 -5 3 -12 1 -16 -4 -7 -12 35 -32 148 -70 l88 -30 34 19 c35 20 35 20 23 0 -7 -11 -16 -20 -20 -20 -22 0 -2 -22 50 -56 31 -21 80 -55 107 -75 28 -21 59 -37 69 -36 15 2 22 -7 27 -33 5 -22 23 -49 48 -73 23 -21 41 -41 41 -45 0 -4 18 -27 40 -51 22 -24 40 -48 40 -53 0 -5 7 -11 15 -14 8 -4 15 -12 15 -20 0 -7 6 -17 13 -21 8 -4 18 -16 23 -26 6 -10 37 -38 70 -62 51 -39 64 -44 94 -39 52 8 133 -38 188 -107 24 -30 52 -65 63 -77 10 -13 19 -26 19 -30 0 -3 12 -19 27 -34 25 -26 25 -28 7 -28 -19 0 -64 38 -64 53 0 13 -71 100 -117 144 -25 23 -56 44 -67 44 -12 1 -45 2 -75 3 -34 1 -56 6 -59 14 -2 7 -12 17 -22 22 -17 9 -21 1 -41 -85 -18 -79 -24 -93 -35 -84 -10 8 -11 15 -4 24 5 6 11 31 14 54 2 23 6 44 10 48 15 15 5 73 -14 85 -11 7 -20 18 -20 23 0 6 -16 28 -35 49 -19 21 -35 42 -35 47 0 4 -6 12 -13 16 -7 4 -20 20 -30 36 -10 15 -42 50 -71 78 -30 28 -62 65 -71 82 -20 37 -165 141 -189 135 -12 -2 -7 -18 27 -77 73 -128 92 -159 108 -178 8 -10 27 -37 41 -59 15 -23 38 -54 52 -69 25 -27 34 -55 18 -55 -10 0 -176 250 -227 342 -20 38 -42 71 -48 75 -7 5 -18 20 -25 34 -8 14 -31 33 -52 43 -59 26 -183 66 -188 61 -3 -2 -14 2 -25 10 -18 13 -24 10 -63 -28 -24 -23 -44 -48 -44 -56 0 -15 -54 -11 -155 13 -16 3 -43 8 -60 11 -71 9 -224 62 -278 94 -116 72 -127 73 -154 20 -7 -13 -22 -27 -34 -31 -12 -5 -19 -14 -16 -22 3 -8 -14 -37 -39 -66 -24 -28 -44 -57 -44 -64 0 -13 -105 -116 -143 -140 -28 -19 -104 -22 -141 -7 -16 7 -35 10 -42 7 -8 -3 -16 -1 -20 5 -3 5 -13 9 -22 8 -10 -1 -25 1 -35 6 -10 4 -21 5 -24 1 -3 -3 -11 -2 -17 3 -17 13 -174 63 -214 67 -98 12 -230 13 -266 3 -23 -6 -66 -13 -96 -14 -30 -2 -76 -7 -103 -10 -56 -8 -180 18 -216 47 -13 10 -34 18 -48 18 -13 0 -58 16 -100 36 -71 34 -81 36 -147 31 -51 -3 -85 -12 -119 -31 -32 -17 -63 -26 -95 -26 -26 0 -77 -3 -115 -7 l-67 -6 0 -748 0 -749 8000 0 8000 0 0 800 0 800 -28 0 c-95 -2 -201 14 -250 37 -97 47 -236 36 -305 -25 -10 -9 -32 -15 -52 -14 -18 1 -39 -4 -47 -11 -21 -21 -48 -33 -108 -47 -30 -7 -68 -21 -84 -31 -28 -17 -30 -17 -55 0 -41 28 -115 40 -302 46 -108 4 -136 2 -190 -16 -35 -11 -72 -25 -82 -30 -19 -10 -185 -44 -285 -59 -96 -13 -109 -4 -268 179 -17 20 -41 57 -53 83 -19 41 -90 118 -107 118 -4 0 -25 -15 -48 -34 -34 -27 -92 -53 -236 -104 -8 -3 -20 -4 -27 -3 -6 1 -14 -3 -18 -8 -3 -6 -12 -8 -20 -4 -9 3 -21 0 -29 -6 -7 -6 -21 -9 -29 -5 -9 3 -22 2 -29 -2 -6 -4 -21 -9 -32 -10 -12 -1 -43 -5 -71 -9 -49 -6 -50 -6 -75 30 -39 60 -56 67 -120 50 -30 -9 -91 -28 -135 -44 -63 -22 -83 -34 -95 -57 -8 -16 -17 -31 -20 -34 -12 -12 -60 -87 -60 -93 0 -4 -8 -20 -19 -35 -10 -15 -51 -77 -90 -138 -70 -109 -106 -153 -116 -142 -3 3 6 19 20 36 14 16 25 35 25 41 0 6 4 11 9 11 10 0 107 148 160 241 29 52 40 99 24 99 -5 0 -45 -28 -91 -61 -54 -40 -81 -66 -78 -75 3 -8 0 -14 -7 -14 -15 0 -107 -91 -107 -105 0 -6 -9 -16 -20 -23 -11 -7 -20 -18 -20 -26 0 -8 -7 -16 -15 -20 -8 -3 -15 -12 -15 -21 0 -8 -4 -15 -8 -15 -17 0 -103 -122 -107 -149 -4 -33 11 -116 27 -149 9 -17 9 -25 0 -34 -16 -16 -17 -14 -38 82 -16 70 -23 86 -39 88 -37 5 -79 -47 -104 -128 -13 -41 -27 -84 -32 -95 -15 -35 4 -162 31 -200 4 -5 13 -37 20 -70 7 -33 15 -66 18 -74 3 -8 0 -12 -8 -9 -7 2 -14 20 -16 39 -3 35 -47 178 -65 211 -12 24 -11 95 2 103 6 4 8 13 5 20 -2 7 -1 16 4 21 8 8 60 140 60 151 0 2 -19 3 -42 1 -73 -4 -105 -28 -180 -133 -46 -64 -104 -120 -112 -107 -3 5 4 18 15 28 11 10 40 45 63 79 83 115 177 179 237 160 15 -5 32 2 59 24 21 17 43 31 48 31 9 0 94 94 100 110 2 5 19 26 38 46 19 21 34 42 34 47 0 5 11 18 25 29 14 11 25 24 25 29 0 6 13 22 30 35 17 15 32 39 36 60 5 26 11 34 27 34 22 0 187 107 187 122 0 4 6 8 14 8 7 0 20 7 27 16 11 14 10 19 -10 35 -28 23 -19 25 14 3 25 -17 48 -15 102 8 15 6 57 21 92 32 68 22 92 46 47 46 -14 0 -26 5 -26 10 0 6 7 10 15 10 9 0 18 7 21 15 5 12 10 10 26 -10 11 -14 24 -25 29 -25 5 0 52 41 104 91 93 90 154 139 174 139 6 0 16 10 22 22 10 18 8 24 -11 40 -65 53 -192 54 -420 3 -91 -20 -172 -37 -180 -37 -8 0 -22 -2 -30 -5 -8 -3 -30 -7 -48 -9 -33 -3 -249 -62 -266 -72 -5 -3 -25 -6 -44 -8 -18 -2 -40 -8 -46 -14 -7 -5 -16 -7 -19 -4 -3 4 -14 3 -24 -1 -10 -5 -25 -7 -35 -6 -9 1 -19 -3 -22 -8 -4 -6 -13 -8 -21 -5 -7 3 -23 0 -35 -6 -26 -14 -38 -6 -21 14 6 8 20 12 30 9 10 -3 22 0 25 6 4 5 13 8 21 4 9 -3 21 0 29 6 7 6 20 9 29 5 8 -3 18 -1 21 4 3 6 15 8 25 5 10 -3 22 0 25 6 4 5 13 8 20 5 8 -3 17 0 21 5 3 6 11 9 16 6 5 -4 14 -3 21 1 7 4 22 9 34 10 13 1 38 9 56 17 18 8 92 27 163 42 72 15 143 31 159 36 16 5 40 9 53 9 39 0 213 43 213 52 0 22 -59 81 -103 103 -26 14 -51 24 -55 24 -4 -1 -9 0 -12 1 -15 6 -182 4 -186 -2 -3 -4 -11 -5 -18 -2 -17 7 -325 -93 -347 -112 -18 -16 -85 -19 -94 -4 -3 5 -15 6 -28 1 -12 -4 -92 -9 -177 -10 -85 -1 -181 -4 -213 -7 -44 -3 -58 -1 -55 9 3 7 26 13 54 15 26 2 54 8 61 14 8 6 67 9 160 7 110 -3 154 0 172 10 15 8 42 11 75 8 49 -4 147 20 170 43 6 6 18 10 27 10 10 0 30 5 46 12 15 6 31 11 35 10 4 -1 20 3 35 10 15 6 35 12 43 14 70 13 92 16 140 18 64 4 162 -24 215 -60 20 -13 40 -24 45 -24 5 0 17 -11 26 -25 9 -14 24 -25 33 -25 9 0 22 -5 28 -11 6 -6 28 -12 49 -14 22 -1 48 -6 59 -10 17 -5 171 -81 245 -120 62 -33 108 -48 148 -48 23 0 42 -4 42 -9 0 -4 13 -8 29 -8 17 0 33 -5 36 -10 4 -6 11 -8 16 -5 5 4 12 -1 15 -9 6 -15 35 -7 129 33 24 11 104 34 125 36 8 1 33 5 56 9 27 5 62 2 102 -8 33 -9 80 -16 104 -16 86 0 183 -7 198 -13 8 -4 29 -9 45 -11 17 -2 38 -7 47 -11 9 -4 21 -4 27 -1 5 4 13 1 17 -5 3 -6 19 -9 35 -5 16 3 31 1 35 -5 4 -7 22 -9 46 -5 24 4 46 2 53 -4 8 -6 26 -13 42 -15 15 -2 30 -5 33 -6 7 -3 65 -7 185 -12 55 -3 107 -7 115 -10 42 -13 256 -73 334 -94 49 -13 111 -25 137 -27 25 -2 51 -6 56 -9 10 -6 35 -10 128 -23 22 -2 47 -7 56 -10 9 -2 24 -2 33 2 15 6 16 83 16 935 l0 929 -8000 0 -8000 0 0 -972z m13035 -756 c7 -23 6 -23 -14 -5 -12 9 -21 26 -21 37 0 18 2 18 14 6 8 -8 17 -25 21 -38z m-10027 -85 c-1 -1 -13 -8 -25 -14 -20 -11 -22 -11 -16 5 3 9 11 23 16 30 9 11 12 10 20 -3 5 -9 7 -17 5 -18z"/>
 <path d="M13405 1984 c-22 -8 -47 -23 -57 -34 -9 -11 -20 -20 -25 -20 -13 0 -63 -54 -63 -67 0 -6 -29 -33 -64 -59 -57 -42 -63 -49 -53 -66 21 -34 69 -57 112 -53 102 9 214 32 310 65 11 3 51 21 88 40 75 36 107 71 90 98 -18 29 -143 85 -167 76 -8 -3 -16 2 -20 11 -3 10 -12 15 -21 11 -8 -3 -17 -1 -20 4 -9 14 -63 11 -110 -6z"/>
 <path d="M14094 1969 c-2 -4 -10 -6 -18 -3 -12 5 -165 -47 -195 -65 -12 -8 -4 -25 38 -90 30 -45 57 -81 62 -81 5 0 9 -5 9 -11 0 -15 137 -149 163 -158 43 -16 148 -2 255 33 61 21 82 32 90 52 10 20 17 23 37 18 21 -5 27 -2 31 13 4 15 12 19 32 15 15 -3 32 -9 39 -14 7 -5 17 -7 22 -4 5 4 12 2 16 -4 7 -11 2 -11 251 -15 100 -1 187 -5 192 -9 12 -7 84 20 157 59 85 46 89 53 49 80 -39 25 -146 44 -289 51 -93 4 -165 14 -254 35 -69 17 -150 32 -181 34 -30 2 -84 10 -120 18 -36 8 -72 15 -80 16 -29 2 -55 8 -85 21 -33 15 -213 22 -221 9z"/>
 <path d="M2450 1882 c-56 -24 -73 -30 -100 -38 -44 -12 -100 -53 -100 -73 0 -35 168 -130 240 -136 9 0 21 -4 27 -8 7 -5 27 -9 45 -11 18 -2 41 -7 51 -11 9 -4 24 -5 32 -2 8 4 17 1 21 -4 3 -6 17 -9 30 -6 14 2 27 0 30 -4 3 -5 19 -9 36 -9 23 0 39 10 69 43 45 49 46 53 17 63 -12 3 -61 44 -109 90 -49 46 -103 91 -120 100 -43 22 -126 25 -169 6z"/>
 <path d="M1779 1885 c-3 -2 -21 -7 -40 -9 -19 -3 -45 -9 -59 -14 -37 -14 -225 -51 -290 -57 -30 -3 -82 -12 -115 -21 -33 -8 -69 -16 -80 -18 -11 -2 -20 -4 -20 -6 0 -1 -31 -4 -70 -6 -38 -2 -95 -7 -125 -11 -30 -4 -72 -6 -92 -4 -21 1 -42 -1 -49 -4 -6 -4 -29 -9 -51 -11 -63 -4 -138 -35 -138 -56 0 -10 8 -22 18 -25 9 -4 20 -12 25 -19 4 -7 42 -26 85 -42 81 -32 85 -32 252 -17 50 4 155 3 253 -4 149 -11 182 -16 285 -50 64 -21 137 -42 162 -46 106 -18 102 -19 184 51 42 35 76 71 76 78 0 8 6 16 14 19 14 5 132 176 125 180 -4 3 -30 14 -91 41 -20 9 -45 16 -55 16 -10 0 -23 4 -28 9 -18 17 -164 38 -176 26z"/>
 </g>
<g id="layer104" fill="#6f6f6f" stroke="none">
 <path d="M0 2638 c0 -535 4 -979 8 -986 7 -10 15 -10 37 -2 16 6 34 9 40 6 6 -2 36 2 65 10 30 8 74 16 100 19 119 12 248 43 305 71 17 8 46 19 65 24 19 4 60 15 90 23 30 8 119 18 198 21 142 6 188 12 207 26 6 4 42 10 80 14 39 3 86 8 105 11 19 4 42 7 50 7 8 0 20 5 26 10 7 5 28 9 48 10 20 1 39 4 41 7 5 9 48 7 63 -3 7 -4 17 -4 24 0 6 4 25 9 42 11 179 17 299 21 314 10 7 -5 15 -7 19 -4 3 4 12 2 19 -3 6 -6 16 -10 20 -9 5 1 22 -3 37 -9 16 -7 35 -12 43 -12 8 0 31 -9 51 -20 44 -23 106 -18 168 13 22 12 52 22 67 23 28 2 93 32 223 105 95 53 106 57 177 69 34 5 64 14 67 19 4 5 19 13 34 16 15 4 35 18 45 30 21 26 127 87 136 78 3 -3 11 -2 18 3 17 12 235 7 258 -6 3 -2 10 -4 15 -5 6 -1 23 -7 39 -14 16 -6 47 -16 70 -21 22 -5 74 -21 115 -35 42 -14 97 -25 126 -25 28 0 56 -5 63 -12 9 -9 69 -13 203 -15 205 -2 258 -8 240 -26 -11 -11 -338 -12 -419 0 -27 3 -53 1 -67 -7 -20 -11 -30 -10 -59 4 -61 29 -318 113 -384 125 -97 19 -178 12 -246 -20 -58 -28 -126 -89 -126 -115 0 -10 -14 -14 -42 -15 -62 -2 -87 -6 -138 -20 -58 -15 -84 -37 -69 -56 15 -17 97 -73 108 -73 5 0 39 -35 76 -77 38 -43 78 -85 90 -95 21 -16 23 -16 37 0 8 9 25 38 37 64 12 25 28 52 36 58 11 9 14 6 13 -21 -1 -22 -7 -33 -20 -37 -10 -2 -18 -8 -18 -12 0 -5 -3 -15 -6 -24 -5 -12 0 -16 20 -16 14 0 26 -4 26 -9 0 -10 -33 -23 -46 -19 -5 2 -9 -1 -9 -7 0 -5 29 -20 65 -31 36 -12 80 -29 97 -38 18 -10 37 -15 42 -12 5 4 12 2 16 -4 4 -6 18 -1 35 12 34 25 52 17 26 -11 -10 -11 -15 -25 -11 -30 10 -18 188 -133 215 -141 17 -4 26 -14 28 -32 2 -15 26 -49 56 -79 28 -30 55 -62 59 -72 3 -9 11 -17 17 -17 5 0 10 -7 10 -15 0 -9 7 -18 15 -21 8 -4 15 -11 15 -16 0 -5 11 -22 24 -36 13 -15 43 -48 66 -75 24 -26 53 -50 66 -53 12 -3 25 -12 28 -20 4 -11 16 -13 46 -8 54 9 122 -25 173 -86 98 -116 147 -178 147 -184 0 -3 -9 -6 -19 -6 -21 0 -72 53 -96 100 -9 17 -20 30 -25 30 -6 0 -10 5 -10 10 0 16 -61 73 -93 88 -15 6 -52 12 -81 12 -39 0 -60 6 -80 21 -15 12 -29 19 -32 16 -6 -6 -29 -96 -39 -150 -5 -33 -8 -37 -21 -26 -8 7 -12 19 -9 28 4 9 9 34 11 55 3 22 10 48 15 58 14 26 2 76 -22 88 -10 6 -19 17 -19 26 0 8 -7 17 -15 20 -8 4 -15 13 -15 20 0 8 -7 17 -15 20 -8 3 -28 28 -44 54 -16 26 -59 77 -96 111 -36 35 -72 74 -78 87 -7 13 -25 31 -42 40 -16 10 -34 23 -38 30 -4 6 -13 12 -19 12 -7 0 -22 10 -35 22 -37 35 -50 9 -19 -37 14 -21 26 -42 26 -46 0 -5 14 -28 30 -51 17 -22 30 -45 30 -50 0 -12 49 -83 108 -156 39 -51 53 -82 34 -82 -13 0 -150 196 -192 275 -6 11 -22 38 -35 60 -14 22 -30 50 -36 63 -7 12 -15 22 -19 22 -4 0 -13 13 -20 30 -9 22 -24 33 -64 46 -28 9 -55 20 -61 24 -18 13 -107 40 -116 34 -5 -3 -17 0 -27 5 -15 8 -27 3 -60 -26 -23 -20 -42 -42 -42 -50 0 -15 -36 -16 -100 -2 -25 5 -67 13 -95 19 -47 8 -79 16 -169 39 -42 10 -167 70 -177 84 -3 5 -19 15 -34 23 -28 14 -29 14 -72 -32 -24 -26 -43 -51 -43 -55 0 -4 -15 -27 -33 -51 -18 -24 -40 -55 -50 -70 -22 -36 -93 -104 -137 -133 -35 -24 -114 -36 -138 -21 -7 4 -16 5 -21 1 -5 -3 -13 -1 -16 5 -4 6 -15 8 -25 5 -10 -3 -21 -1 -25 5 -4 6 -15 8 -25 5 -10 -3 -21 -1 -25 5 -4 6 -14 9 -22 6 -8 -3 -34 3 -59 14 -24 11 -59 23 -77 27 -17 3 -38 11 -46 17 -17 13 -271 15 -381 2 -172 -19 -210 -22 -218 -14 -4 4 -21 9 -37 12 -39 4 -64 15 -94 38 -13 10 -40 18 -62 18 -21 0 -40 4 -43 9 -15 24 -116 61 -168 61 -50 0 -146 -29 -173 -52 -5 -4 -32 -8 -60 -8 -27 0 -80 -3 -118 -7 l-67 -6 0 -748 0 -749 8000 0 8000 0 -2 792 -3 793 -50 11 c-27 6 -81 12 -120 13 -44 1 -76 8 -86 17 -8 8 -23 14 -32 14 -9 0 -19 5 -22 11 -4 6 -13 8 -21 5 -7 -3 -15 -2 -18 2 -2 4 -37 6 -76 5 -54 -1 -79 -6 -99 -21 -45 -33 -89 -52 -120 -52 -16 0 -33 -5 -36 -10 -8 -13 -72 -40 -96 -40 -10 0 -43 -11 -72 -24 -51 -22 -54 -23 -78 -6 -13 9 -46 20 -74 24 -27 5 -66 10 -85 13 -19 3 -93 6 -165 6 -119 1 -136 -1 -200 -27 -82 -32 -273 -76 -362 -83 l-62 -5 -43 44 c-24 24 -56 51 -72 61 -15 10 -34 33 -41 50 -7 18 -25 43 -39 56 -14 13 -31 40 -37 60 -11 36 -59 94 -92 112 -13 8 -27 2 -60 -23 -23 -18 -60 -42 -82 -52 -22 -10 -52 -25 -67 -32 -14 -8 -37 -14 -50 -14 -13 0 -28 -4 -33 -9 -9 -8 -48 -16 -120 -24 -11 -1 -26 -6 -32 -10 -7 -5 -17 -6 -23 -2 -5 3 -24 0 -42 -7 -56 -22 -89 -12 -127 39 -31 42 -35 45 -70 39 -65 -10 -75 -13 -164 -42 -79 -26 -90 -32 -102 -61 -8 -18 -18 -33 -23 -33 -4 0 -16 -15 -25 -32 -10 -18 -28 -51 -42 -73 -13 -22 -27 -47 -31 -55 -4 -8 -16 -26 -27 -40 -10 -14 -25 -38 -32 -55 -18 -43 -123 -167 -130 -155 -6 10 0 20 75 115 22 27 47 63 55 80 9 16 25 44 35 60 11 17 24 41 30 54 6 13 19 35 30 49 20 25 27 62 11 62 -4 0 -20 -9 -34 -20 -14 -11 -30 -20 -36 -20 -7 0 -14 -7 -17 -15 -4 -8 -12 -15 -18 -15 -16 0 -56 -42 -56 -58 0 -7 -6 -12 -14 -12 -7 0 -30 -19 -50 -43 -20 -23 -48 -54 -61 -69 -14 -15 -25 -31 -25 -36 0 -5 -16 -25 -35 -45 -19 -20 -35 -40 -35 -45 0 -6 -7 -12 -15 -16 -8 -3 -15 -12 -15 -21 0 -8 -4 -15 -9 -15 -5 0 -18 -15 -29 -33 -16 -29 -18 -42 -11 -86 4 -29 13 -69 20 -88 7 -24 8 -38 1 -45 -14 -14 -32 -1 -32 23 0 11 -7 49 -16 85 -15 58 -19 64 -38 58 -11 -3 -26 -12 -32 -20 -6 -8 -16 -14 -23 -14 -6 0 -11 -7 -11 -15 0 -8 -4 -23 -9 -33 -52 -102 -72 -239 -41 -277 10 -12 60 -180 60 -202 0 -8 -6 -13 -12 -10 -7 2 -12 10 -10 17 1 7 -2 18 -8 24 -5 7 -7 16 -4 19 3 3 2 11 -2 18 -4 7 -9 24 -10 37 -2 13 -12 41 -23 62 -11 21 -17 41 -14 44 3 3 0 12 -7 21 -16 20 -8 119 14 160 9 17 16 37 16 45 0 9 4 20 9 25 5 6 11 24 13 40 3 28 1 30 -34 31 -21 1 -42 -4 -49 -12 -6 -8 -18 -14 -25 -14 -12 0 -94 -93 -94 -108 0 -4 -22 -31 -49 -61 -65 -74 -88 -60 -26 16 25 30 45 58 45 62 0 4 29 37 65 73 58 59 70 67 114 73 28 4 55 4 61 0 6 -3 28 7 49 24 21 17 43 31 48 31 5 0 29 25 53 56 25 30 53 63 63 72 9 9 17 22 17 28 0 7 7 14 15 18 8 3 15 12 15 20 0 9 9 20 20 26 11 6 20 17 20 24 0 7 18 27 40 44 27 22 41 43 46 67 5 28 11 35 29 35 12 0 30 9 40 20 10 11 24 20 32 20 7 0 16 7 19 15 4 8 11 15 18 15 6 0 33 18 60 40 26 22 52 40 57 40 19 0 8 21 -16 30 -14 5 -25 17 -25 25 0 18 13 13 45 -16 20 -17 23 -17 120 13 55 17 111 38 125 47 l24 16 -29 5 c-15 3 -30 11 -33 19 -3 9 1 11 16 7 29 -10 34 6 11 40 -20 31 -27 76 -8 57 5 -5 23 -34 38 -64 16 -29 33 -55 38 -56 12 -4 103 82 132 124 12 18 28 33 35 33 7 0 22 11 34 25 12 14 28 25 35 25 7 0 28 13 47 29 29 24 33 31 22 44 -7 8 -34 22 -60 30 -86 27 -140 29 -242 6 -52 -11 -135 -29 -185 -39 -49 -10 -124 -25 -165 -33 -41 -9 -91 -20 -110 -26 -19 -6 -50 -13 -69 -16 -19 -2 -39 -9 -44 -14 -5 -5 -15 -7 -22 -5 -7 3 -16 1 -19 -5 -4 -6 -13 -8 -20 -5 -8 3 -17 1 -20 -5 -4 -6 -13 -8 -20 -5 -8 3 -17 0 -21 -5 -3 -6 -11 -9 -16 -6 -5 4 -15 3 -21 -2 -7 -4 -22 -9 -33 -10 -11 -1 -33 -4 -50 -7 -16 -3 -39 -8 -50 -9 -11 -2 -30 -7 -42 -11 -14 -4 -23 -3 -23 3 0 18 34 31 85 32 10 0 24 4 30 9 6 5 28 11 50 14 38 5 203 46 235 59 8 3 26 8 40 10 14 3 81 18 150 32 69 15 154 33 190 40 107 21 174 38 184 46 4 4 -4 23 -20 43 -29 36 -85 69 -139 81 -43 10 -176 12 -182 2 -2 -4 -13 -5 -23 -2 -10 3 -21 1 -25 -5 -3 -6 -11 -8 -16 -5 -5 4 -15 3 -21 -1 -7 -5 -19 -9 -28 -9 -24 -2 -184 -56 -194 -66 -6 -5 -20 -9 -32 -9 -12 0 -26 -6 -33 -13 -8 -10 -62 -14 -228 -15 -120 -1 -247 -5 -281 -8 -57 -5 -63 -3 -60 12 4 22 22 24 236 29 95 2 189 9 208 15 20 7 56 10 79 8 29 -4 55 1 81 13 22 10 49 18 61 19 12 0 25 4 28 10 3 5 16 10 28 10 12 0 35 7 51 15 15 8 38 15 50 15 13 0 26 3 30 7 3 4 14 8 24 9 9 2 28 5 42 8 120 23 205 15 280 -28 19 -10 47 -25 61 -33 14 -7 34 -22 44 -33 20 -22 70 -48 95 -49 26 -1 54 -7 100 -21 40 -12 65 -25 135 -67 86 -51 192 -95 231 -96 24 0 44 -4 44 -9 0 -4 13 -8 29 -8 17 0 33 -5 36 -10 4 -6 10 -8 15 -5 5 3 11 1 14 -3 7 -12 55 -3 81 14 23 15 124 42 209 55 41 6 79 6 120 -2 68 -13 117 -17 221 -20 39 -1 77 -5 86 -10 9 -5 34 -11 55 -14 22 -4 53 -8 69 -11 17 -2 46 -7 65 -10 19 -3 51 -5 70 -5 31 0 77 -10 120 -26 8 -4 49 -8 90 -9 150 -7 252 -16 270 -25 3 -1 10 -3 15 -4 6 -1 17 -4 25 -7 30 -10 246 -77 281 -88 19 -5 57 -12 85 -15 27 -2 99 -13 159 -23 61 -11 116 -17 123 -15 9 4 12 200 12 934 l0 929 -8000 0 -8000 0 0 -972z"/>
 <path d="M13450 1991 c-8 -5 -17 -8 -21 -6 -15 10 -83 -37 -141 -97 -35 -35 -85 -79 -111 -98 l-49 -35 41 -37 c43 -41 40 -40 166 -23 103 14 286 70 327 101 18 13 43 28 54 33 28 12 35 33 21 60 -9 16 -36 30 -92 49 -44 14 -83 31 -87 36 -4 6 -18 12 -30 13 -13 0 -32 4 -43 7 -11 4 -27 2 -35 -3z"/>
 <path d="M14094 1968 c-3 -5 -9 -6 -14 -3 -4 3 -21 -2 -36 -10 -16 -8 -46 -18 -67 -21 -20 -4 -40 -11 -43 -15 -3 -5 -13 -9 -22 -9 -9 0 -24 -4 -32 -10 -12 -8 -12 -11 1 -27 8 -10 21 -31 29 -46 8 -15 31 -47 52 -70 21 -23 38 -45 38 -50 0 -9 107 -117 116 -117 3 0 17 -9 30 -19 25 -20 53 -21 129 -5 22 4 45 8 50 9 6 1 23 6 38 13 15 6 40 14 55 18 44 9 70 25 75 46 5 17 11 19 37 13 27 -6 32 -4 37 14 6 24 12 25 50 9 51 -21 100 -25 364 -30 127 -2 194 1 210 9 13 6 44 21 69 32 25 12 56 30 70 41 24 19 24 21 7 34 -36 28 -172 56 -293 61 -144 6 -172 10 -294 41 -52 13 -120 25 -150 28 -30 2 -77 9 -103 15 -27 6 -72 14 -100 17 -29 3 -57 10 -64 16 -6 5 -24 11 -40 13 -15 2 -28 5 -28 6 0 7 -167 4 -171 -3z"/>
 <path d="M2485 1889 c-21 -4 -41 -11 -43 -17 -1 -5 -11 -8 -21 -5 -10 3 -22 0 -25 -6 -4 -6 -14 -11 -23 -11 -30 0 -101 -43 -112 -67 -14 -30 -11 -33 99 -93 41 -23 93 -44 115 -46 22 -3 45 -10 51 -15 7 -5 16 -9 20 -8 5 1 11 0 14 -1 3 -1 17 -4 33 -6 60 -8 73 -11 87 -16 8 -4 22 -7 30 -7 8 0 29 -3 45 -7 26 -5 36 1 70 36 37 39 39 43 21 54 -10 6 -56 48 -101 92 -45 45 -95 90 -109 100 -34 22 -98 32 -151 23z"/>
 <path d="M1680 1860 c-114 -30 -208 -49 -275 -55 -64 -6 -135 -20 -201 -41 -23 -7 -75 -16 -115 -19 -67 -5 -231 -15 -269 -16 -8 0 -22 -3 -30 -6 -8 -3 -28 -7 -44 -9 -33 -5 -96 -33 -96 -44 0 -12 122 -90 142 -90 7 0 24 -6 38 -13 19 -10 48 -11 115 -6 120 10 390 10 456 -1 30 -5 95 -23 144 -40 50 -17 128 -40 175 -50 84 -19 85 -19 127 1 49 24 173 143 173 166 0 6 7 13 15 17 8 3 15 10 15 16 0 6 13 28 29 48 50 64 49 77 -6 98 -26 9 -52 21 -58 26 -5 4 -18 8 -30 8 -12 0 -26 5 -32 11 -21 21 -192 20 -273 -1z"/>
 </g>
<g id="layer105" fill="#ffffff" stroke="none">
 <path d="M2 2633 l3 -978 55 3 c30 1 89 9 130 17 41 7 100 17 130 21 30 3 132 31 225 61 163 52 177 55 325 64 85 5 182 16 215 24 33 7 87 17 120 20 33 4 103 16 155 27 52 11 129 22 170 23 41 2 104 7 140 11 36 5 110 8 165 8 89 -1 111 -5 200 -37 113 -42 173 -47 213 -18 15 10 54 26 87 35 33 10 116 47 185 82 72 38 152 72 190 80 80 18 130 42 195 94 64 51 126 71 214 71 99 0 168 -15 322 -67 158 -54 213 -62 497 -73 205 -7 253 -15 227 -40 -6 -4 -115 -5 -245 -1 -156 5 -241 3 -252 -3 -12 -8 -31 -4 -75 15 -78 35 -293 103 -371 119 -150 29 -314 -30 -352 -126 -13 -33 -17 -36 -45 -31 -60 12 -215 -31 -215 -59 0 -15 23 -35 80 -67 25 -15 74 -58 109 -98 103 -116 128 -122 152 -39 7 21 22 48 35 60 l23 21 -1 -31 c-1 -20 -8 -36 -20 -42 -25 -13 -24 -49 2 -49 29 0 25 -18 -6 -26 -37 -9 -21 -20 96 -59 l104 -35 34 20 c43 26 53 18 22 -15 -13 -14 -22 -26 -19 -28 51 -43 196 -141 216 -146 18 -5 29 -16 34 -35 4 -15 32 -53 61 -84 30 -32 86 -101 125 -154 85 -114 163 -173 225 -169 76 4 119 -30 247 -191 33 -43 61 -80 61 -83 0 -3 -9 -5 -19 -5 -11 0 -33 17 -50 38 -157 195 -166 202 -252 202 -41 0 -63 5 -82 20 -14 11 -27 20 -29 20 -3 0 -13 -37 -22 -83 -26 -118 -24 -113 -41 -96 -12 12 -12 23 0 83 8 38 17 77 20 86 4 11 -10 37 -38 71 -24 30 -68 88 -99 129 -31 41 -81 100 -112 130 -31 30 -56 59 -56 65 -1 15 -170 128 -170 113 0 -27 165 -298 226 -371 24 -28 32 -57 16 -57 -19 0 -161 206 -238 345 -21 39 -44 76 -50 83 -7 6 -15 21 -19 31 -4 15 -35 29 -118 56 -62 19 -124 39 -139 44 -22 7 -33 3 -67 -27 -23 -19 -41 -41 -41 -49 0 -19 -39 -16 -184 12 -182 37 -275 69 -352 121 l-67 46 -43 -48 c-24 -26 -47 -56 -50 -68 -4 -12 -22 -38 -40 -59 -19 -20 -34 -43 -34 -51 0 -16 -85 -96 -140 -132 -24 -16 -52 -23 -90 -25 -69 -2 -228 32 -345 74 -84 30 -99 32 -220 32 -71 0 -168 -6 -215 -13 -47 -7 -104 -15 -127 -18 -51 -7 -167 20 -205 47 -15 10 -37 19 -50 19 -13 0 -59 18 -103 41 -74 38 -85 40 -143 36 -37 -3 -83 -15 -115 -30 -39 -19 -76 -26 -147 -31 -52 -3 -105 -9 -117 -12 l-23 -6 0 -744 0 -744 8000 0 8000 0 -2 792 -3 792 -30 8 c-16 4 -70 11 -120 14 -60 5 -103 14 -130 27 -26 13 -67 22 -115 25 -72 4 -80 2 -148 -32 -39 -20 -84 -36 -99 -36 -15 0 -36 -8 -47 -19 -12 -10 -52 -26 -91 -35 -38 -10 -81 -23 -95 -31 -21 -11 -28 -11 -50 5 -33 23 -193 43 -340 44 -105 0 -122 -3 -196 -31 -76 -29 -212 -63 -333 -83 -44 -8 -59 -6 -83 8 -42 25 -158 138 -158 155 0 7 -12 24 -26 38 -15 13 -33 39 -41 58 -20 47 -84 121 -104 121 -10 0 -30 -11 -46 -24 -72 -60 -194 -104 -393 -141 -129 -24 -143 -22 -192 31 -37 40 -45 44 -72 38 -69 -14 -242 -77 -251 -92 -5 -8 -17 -23 -26 -32 -8 -9 -37 -56 -63 -104 -90 -165 -214 -335 -235 -322 -7 5 3 26 32 64 55 72 122 176 176 273 44 82 48 94 27 86 -26 -10 -156 -110 -156 -119 0 -6 -20 -28 -44 -49 -24 -22 -86 -94 -138 -160 -51 -67 -101 -131 -110 -143 -16 -21 -16 -27 3 -111 13 -56 16 -92 10 -98 -13 -13 -31 1 -31 25 0 21 -29 140 -36 147 -2 2 -19 -7 -39 -20 -26 -18 -42 -43 -66 -99 -46 -112 -48 -174 -10 -292 39 -123 49 -182 30 -176 -7 2 -17 22 -22 44 -4 21 -21 82 -38 134 -38 115 -35 178 10 291 17 43 26 78 20 83 -11 13 -79 -8 -113 -35 -15 -11 -53 -55 -85 -97 -75 -99 -98 -119 -113 -104 -9 9 -5 20 18 44 17 18 51 60 76 93 83 109 122 135 202 135 29 0 52 8 76 25 19 14 39 25 46 25 7 0 52 53 101 117 48 65 110 140 136 168 27 27 51 62 54 76 3 16 15 29 32 36 34 12 221 143 221 154 0 5 -9 13 -20 19 -11 6 -20 17 -20 26 0 12 8 10 40 -8 l40 -23 82 29 c46 16 99 35 118 44 l35 15 -29 6 c-35 7 -47 31 -17 31 27 0 27 22 1 45 -22 20 -28 69 -7 63 6 -2 26 -31 42 -63 17 -33 37 -61 45 -63 9 -1 55 39 106 91 54 56 109 102 136 116 86 41 68 78 -50 105 -49 11 -82 13 -122 6 -124 -19 -503 -103 -615 -135 -66 -19 -169 -44 -230 -55 -60 -11 -120 -23 -132 -25 -20 -5 -41 10 -30 21 2 3 69 18 148 34 79 16 190 43 245 59 56 16 184 46 285 66 200 39 299 64 299 74 0 17 -70 72 -120 95 -66 31 -176 35 -278 11 -90 -21 -313 -95 -339 -112 -15 -10 -33 -13 -51 -9 -33 9 -303 8 -424 0 -76 -6 -88 -4 -88 9 0 24 29 29 249 38 274 11 321 18 488 72 179 58 289 75 380 58 79 -14 112 -30 175 -82 26 -22 53 -39 60 -39 8 0 18 -4 23 -9 6 -5 43 -16 84 -25 41 -9 95 -29 120 -44 103 -64 240 -125 290 -130 28 -2 51 -8 51 -13 0 -5 13 -9 29 -9 17 0 33 -5 36 -10 4 -6 10 -8 15 -5 5 3 11 1 14 -4 3 -5 51 6 107 25 124 42 226 58 294 45 28 -5 102 -13 165 -16 63 -4 158 -15 210 -26 52 -10 127 -21 165 -25 39 -3 93 -12 120 -20 28 -8 102 -17 165 -19 178 -8 201 -12 382 -70 92 -30 192 -57 221 -61 28 -3 95 -15 149 -25 53 -10 115 -19 137 -19 l41 0 0 930 0 930 -8000 0 -8000 0 2 -977z"/>
 <path d="M13415 1978 c-42 -15 -89 -51 -163 -125 -35 -35 -77 -70 -95 -79 l-31 -17 42 -39 c38 -35 46 -38 80 -33 253 41 369 77 455 141 46 33 48 37 34 57 -20 32 -147 82 -169 68 -15 -9 -18 -8 -18 8 0 29 -75 40 -135 19z"/>
 <path d="M14098 1966 c-51 -12 -206 -64 -217 -72 -2 -2 22 -43 54 -91 64 -96 146 -187 203 -226 34 -23 42 -24 100 -16 35 5 105 23 157 40 79 26 94 35 100 56 5 21 10 24 35 18 26 -6 30 -4 30 15 0 17 4 20 18 15 86 -36 156 -44 402 -46 166 -1 178 0 239 25 70 28 134 72 126 86 -15 25 -148 52 -315 65 -97 7 -226 24 -290 38 -63 14 -180 35 -260 48 -80 12 -163 28 -184 36 -59 20 -134 24 -198 9z"/>
 <path d="M2490 1890 c-26 -4 -36 -11 -40 -30 -5 -22 -7 -23 -16 -8 -9 16 -16 15 -87 -14 -60 -24 -79 -36 -83 -55 -8 -30 4 -43 65 -77 73 -39 150 -64 289 -91 161 -33 171 -32 210 8 18 18 32 36 32 40 0 3 -12 13 -27 21 -16 8 -57 44 -93 81 -103 105 -168 138 -250 125z"/>
 <path d="M1668 1855 c-47 -13 -135 -31 -195 -40 -59 -9 -169 -29 -243 -45 -85 -18 -180 -31 -256 -34 -67 -3 -146 -11 -175 -17 -65 -12 -149 -41 -149 -49 0 -11 58 -49 117 -77 l58 -27 305 0 c226 -1 311 -4 327 -14 42 -24 248 -83 310 -89 52 -5 67 -2 97 16 48 30 134 126 202 228 46 68 54 87 43 94 -8 5 -62 25 -121 44 -129 42 -192 44 -320 10z"/>
 </g>

</svg>