<!DOCTYPE svg PUBLIC "-//W3C//DTD SVG 20010904//EN" "http://www.w3.org/TR/2001/REC-SVG-20010904/DTD/svg10.dtd">
<svg version="1.0" xmlns="http://www.w3.org/2000/svg" width="1600px" height="361px" viewBox="0 0 16000 3610" preserveAspectRatio="xMidYMid meet">
<g id="layer101" fill="#414142" stroke="none">
 <path d="M0 1805 l0 -1805 8000 0 8000 0 0 1805 0 1805 -8000 0 -8000 0 0 -1805z"/>
 </g>
<g id="layer102" fill="#ffffff" stroke="none">
 <path d="M2 2633 l3 -978 55 3 c30 1 89 9 130 17 41 7 100 17 130 21 30 3 132 31 225 61 163 52 177 55 325 64 85 5 182 16 215 24 33 7 87 17 120 20 33 4 103 16 155 27 52 11 129 22 170 23 41 2 104 7 140 11 36 5 110 8 165 8 89 -1 111 -5 200 -37 113 -42 173 -47 213 -18 15 10 54 26 87 35 33 10 116 47 185 82 72 38 152 72 190 80 80 18 130 42 195 94 64 51 126 71 214 71 99 0 168 -15 322 -67 158 -54 213 -62 497 -73 205 -7 253 -15 227 -40 -6 -4 -115 -5 -245 -1 -156 5 -241 3 -252 -3 -12 -8 -31 -4 -75 15 -78 35 -293 103 -371 119 -150 29 -314 -30 -352 -126 -13 -33 -17 -36 -45 -31 -60 12 -215 -31 -215 -59 0 -15 23 -35 80 -67 25 -15 74 -58 109 -98 103 -116 128 -122 152 -39 7 21 22 48 35 60 l23 21 -1 -31 c-1 -20 -8 -36 -20 -42 -25 -13 -24 -49 2 -49 29 0 25 -18 -6 -26 -37 -9 -21 -20 96 -59 l104 -35 34 20 c43 26 53 18 22 -15 -13 -14 -22 -26 -19 -28 51 -43 196 -141 216 -146 18 -5 29 -16 34 -35 4 -15 32 -53 61 -84 30 -32 86 -101 125 -154 85 -114 163 -173 225 -169 76 4 119 -30 247 -191 33 -43 61 -80 61 -83 0 -3 -9 -5 -19 -5 -11 0 -33 17 -50 38 -157 195 -166 202 -252 202 -41 0 -63 5 -82 20 -14 11 -27 20 -29 20 -3 0 -13 -37 -22 -83 -26 -118 -24 -113 -41 -96 -12 12 -12 23 0 83 8 38 17 77 20 86 4 11 -10 37 -38 71 -24 30 -68 88 -99 129 -31 41 -81 100 -112 130 -31 30 -56 59 -56 65 -1 15 -170 128 -170 113 0 -27 165 -298 226 -371 24 -28 32 -57 16 -57 -19 0 -161 206 -238 345 -21 39 -44 76 -50 83 -7 6 -15 21 -19 31 -4 15 -35 29 -118 56 -62 19 -124 39 -139 44 -22 7 -33 3 -67 -27 -23 -19 -41 -41 -41 -49 0 -19 -39 -16 -184 12 -182 37 -275 69 -352 121 l-67 46 -43 -48 c-24 -26 -47 -56 -50 -68 -4 -12 -22 -38 -40 -59 -19 -20 -34 -43 -34 -51 0 -16 -85 -96 -140 -132 -24 -16 -52 -23 -90 -25 -69 -2 -228 32 -345 74 -84 30 -99 32 -220 32 -71 0 -168 -6 -215 -13 -47 -7 -104 -15 -127 -18 -51 -7 -167 20 -205 47 -15 10 -37 19 -50 19 -13 0 -59 18 -103 41 -74 38 -85 40 -143 36 -37 -3 -83 -15 -115 -30 -39 -19 -76 -26 -147 -31 -52 -3 -105 -9 -117 -12 l-23 -6 0 -744 0 -744 8000 0 8000 0 -2 792 -3 792 -30 8 c-16 4 -70 11 -120 14 -60 5 -103 14 -130 27 -26 13 -67 22 -115 25 -72 4 -80 2 -148 -32 -39 -20 -84 -36 -99 -36 -15 0 -36 -8 -47 -19 -12 -10 -52 -26 -91 -35 -38 -10 -81 -23 -95 -31 -21 -11 -28 -11 -50 5 -33 23 -193 43 -340 44 -105 0 -122 -3 -196 -31 -76 -29 -212 -63 -333 -83 -44 -8 -59 -6 -83 8 -42 25 -158 138 -158 155 0 7 -12 24 -26 38 -15 13 -33 39 -41 58 -20 47 -84 121 -104 121 -10 0 -30 -11 -46 -24 -72 -60 -194 -104 -393 -141 -129 -24 -143 -22 -192 31 -37 40 -45 44 -72 38 -69 -14 -242 -77 -251 -92 -5 -8 -17 -23 -26 -32 -8 -9 -37 -56 -63 -104 -90 -165 -214 -335 -235 -322 -7 5 3 26 32 64 55 72 122 176 176 273 44 82 48 94 27 86 -26 -10 -156 -110 -156 -119 0 -6 -20 -28 -44 -49 -24 -22 -86 -94 -138 -160 -51 -67 -101 -131 -110 -143 -16 -21 -16 -27 3 -111 13 -56 16 -92 10 -98 -13 -13 -31 1 -31 25 0 21 -29 140 -36 147 -2 2 -19 -7 -39 -20 -26 -18 -42 -43 -66 -99 -46 -112 -48 -174 -10 -292 39 -123 49 -182 30 -176 -7 2 -17 22 -22 44 -4 21 -21 82 -38 134 -38 115 -35 178 10 291 17 43 26 78 20 83 -11 13 -79 -8 -113 -35 -15 -11 -53 -55 -85 -97 -75 -99 -98 -119 -113 -104 -9 9 -5 20 18 44 17 18 51 60 76 93 83 109 122 135 202 135 29 0 52 8 76 25 19 14 39 25 46 25 7 0 52 53 101 117 48 65 110 140 136 168 27 27 51 62 54 76 3 16 15 29 32 36 34 12 221 143 221 154 0 5 -9 13 -20 19 -11 6 -20 17 -20 26 0 12 8 10 40 -8 l40 -23 82 29 c46 16 99 35 118 44 l35 15 -29 6 c-35 7 -47 31 -17 31 27 0 27 22 1 45 -22 20 -28 69 -7 63 6 -2 26 -31 42 -63 17 -33 37 -61 45 -63 9 -1 55 39 106 91 54 56 109 102 136 116 86 41 68 78 -50 105 -49 11 -82 13 -122 6 -124 -19 -503 -103 -615 -135 -66 -19 -169 -44 -230 -55 -60 -11 -120 -23 -132 -25 -20 -5 -41 10 -30 21 2 3 69 18 148 34 79 16 190 43 245 59 56 16 184 46 285 66 200 39 299 64 299 74 0 17 -70 72 -120 95 -66 31 -176 35 -278 11 -90 -21 -313 -95 -339 -112 -15 -10 -33 -13 -51 -9 -33 9 -303 8 -424 0 -76 -6 -88 -4 -88 9 0 24 29 29 249 38 274 11 321 18 488 72 179 58 289 75 380 58 79 -14 112 -30 175 -82 26 -22 53 -39 60 -39 8 0 18 -4 23 -9 6 -5 43 -16 84 -25 41 -9 95 -29 120 -44 103 -64 240 -125 290 -130 28 -2 51 -8 51 -13 0 -5 13 -9 29 -9 17 0 33 -5 36 -10 4 -6 10 -8 15 -5 5 3 11 1 14 -4 3 -5 51 6 107 25 124 42 226 58 294 45 28 -5 102 -13 165 -16 63 -4 158 -15 210 -26 52 -10 127 -21 165 -25 39 -3 93 -12 120 -20 28 -8 102 -17 165 -19 178 -8 201 -12 382 -70 92 -30 192 -57 221 -61 28 -3 95 -15 149 -25 53 -10 115 -19 137 -19 l41 0 0 930 0 930 -8000 0 -8000 0 2 -977z"/>
 <path d="M13415 1978 c-42 -15 -89 -51 -163 -125 -35 -35 -77 -70 -95 -79 l-31 -17 42 -39 c38 -35 46 -38 80 -33 253 41 369 77 455 141 46 33 48 37 34 57 -20 32 -147 82 -169 68 -15 -9 -18 -8 -18 8 0 29 -75 40 -135 19z"/>
 <path d="M14098 1966 c-51 -12 -206 -64 -217 -72 -2 -2 22 -43 54 -91 64 -96 146 -187 203 -226 34 -23 42 -24 100 -16 35 5 105 23 157 40 79 26 94 35 100 56 5 21 10 24 35 18 26 -6 30 -4 30 15 0 17 4 20 18 15 86 -36 156 -44 402 -46 166 -1 178 0 239 25 70 28 134 72 126 86 -15 25 -148 52 -315 65 -97 7 -226 24 -290 38 -63 14 -180 35 -260 48 -80 12 -163 28 -184 36 -59 20 -134 24 -198 9z"/>
 <path d="M2490 1890 c-26 -4 -36 -11 -40 -30 -5 -22 -7 -23 -16 -8 -9 16 -16 15 -87 -14 -60 -24 -79 -36 -83 -55 -8 -30 4 -43 65 -77 73 -39 150 -64 289 -91 161 -33 171 -32 210 8 18 18 32 36 32 40 0 3 -12 13 -27 21 -16 8 -57 44 -93 81 -103 105 -168 138 -250 125z"/>
 <path d="M1668 1855 c-47 -13 -135 -31 -195 -40 -59 -9 -169 -29 -243 -45 -85 -18 -180 -31 -256 -34 -67 -3 -146 -11 -175 -17 -65 -12 -149 -41 -149 -49 0 -11 58 -49 117 -77 l58 -27 305 0 c226 -1 311 -4 327 -14 42 -24 248 -83 310 -89 52 -5 67 -2 97 16 48 30 134 126 202 228 46 68 54 87 43 94 -8 5 -62 25 -121 44 -129 42 -192 44 -320 10z"/>
 </g>

</svg>