<!DOCTYPE svg PUBLIC "-//W3C//DTD SVG 20010904//EN" "http://www.w3.org/TR/2001/REC-SVG-20010904/DTD/svg10.dtd">
<svg version="1.0" xmlns="http://www.w3.org/2000/svg" width="305px" height="381px" viewBox="0 0 3050 3810" preserveAspectRatio="xMidYMid meet">
<g id="layer101" fill="#231e20" stroke="none">
 <path d="M0 1905 l0 -1905 1525 0 1525 0 0 1905 0 1905 -1525 0 -1525 0 0 -1905z"/>
 </g>
<g id="layer102" fill="#fdfdfd" stroke="none">
 <path d="M0 1905 l0 -1905 1525 0 1525 0 0 1905 0 1905 -1525 0 -1525 0 0 -1905z m1953 1788 c20 -41 23 -43 64 -43 38 0 45 -4 55 -27 17 -38 81 -120 115 -145 15 -12 32 -25 36 -28 5 -4 13 -34 18 -66 5 -33 11 -70 14 -84 3 -14 11 -63 20 -110 8 -47 17 -96 20 -110 2 -14 12 -72 20 -130 8 -58 17 -114 20 -125 2 -11 13 -69 24 -130 11 -60 22 -121 25 -135 3 -14 8 -42 11 -62 4 -28 11 -38 24 -38 19 0 91 -66 91 -83 0 -11 -89 -139 -104 -149 -6 -4 -23 -8 -37 -8 -20 0 -42 -17 -85 -63 -33 -35 -66 -76 -74 -92 -8 -17 -22 -41 -30 -55 -26 -39 -59 -135 -66 -190 l-6 -49 -122 -3 c-139 -3 -139 -3 -84 -92 l29 -48 -26 -28 c-24 -25 -26 -33 -23 -101 l3 -74 75 0 75 0 3 -57 c3 -55 3 -56 -27 -63 -17 -4 -52 -5 -78 -4 l-48 3 -5 -169 -5 -170 -60 0 -60 0 -5 170 c-5 154 -7 170 -22 169 -10 0 -34 -1 -53 -2 l-35 -2 32 -45 c62 -88 44 -210 -40 -268 -68 -47 -174 -56 -244 -21 -37 19 -38 19 -38 -26 0 -43 -1 -43 -49 -34 -31 6 -31 7 -31 68 0 147 -107 263 -250 274 -57 4 -76 1 -122 -20 -72 -33 -118 -99 -118 -169 0 -60 9 -84 51 -132 26 -30 44 -40 76 -44 57 -8 85 1 122 39 61 62 32 168 -46 168 -48 0 -77 -32 -69 -75 6 -29 3 -37 -20 -52 -26 -17 -27 -16 -45 6 -38 47 -17 129 43 173 47 33 130 32 176 -2 69 -51 91 -150 51 -230 -22 -44 -43 -64 -99 -89 -85 -39 -172 -22 -242 47 l-38 36 0 -156 0 -157 -37 -3 -38 -3 -3 -122 c-3 -138 3 -130 -93 -125 l-59 4 0 779 0 779 75 0 75 0 0 -109 c0 -60 3 -116 6 -125 4 -10 18 -16 40 -16 l33 0 3 -112 3 -113 500 0 500 0 3 74 c3 68 1 76 -24 102 l-26 27 38 62 c23 37 34 64 28 70 -5 5 -63 11 -129 12 l-119 3 -8 43 c-28 167 -183 402 -264 402 -17 0 -35 19 -73 75 -28 41 -51 78 -51 82 0 14 74 83 90 83 19 0 44 96 61 240 6 52 14 99 17 105 7 11 36 186 58 350 8 61 19 117 23 126 5 8 12 46 16 84 8 68 8 69 70 126 34 32 73 80 87 106 21 42 28 48 59 50 19 1 40 2 47 2 7 1 19 17 27 35 8 19 23 40 32 45 10 6 63 10 121 9 l104 -2 21 -43z"/>
 <path d="M1603 3496 c-35 -50 -32 -55 37 -50 25 2 130 3 233 3 l188 1 -32 45 -32 45 -182 0 -181 0 -31 -44z"/>
 <path d="M1477 3318 c-3 -13 -9 -54 -12 -93 -4 -38 -11 -75 -16 -80 -4 -6 -8 -20 -8 -30 0 -11 -7 -63 -16 -115 -9 -52 -23 -142 -31 -200 -9 -58 -20 -114 -25 -125 -5 -11 -9 -29 -9 -40 1 -11 -4 -49 -10 -84 -5 -35 -9 -65 -7 -67 1 -1 35 -4 76 -5 55 -2 75 1 81 12 4 8 10 68 14 134 3 66 11 145 17 175 5 30 17 143 25 250 8 107 18 216 21 243 l5 47 -50 0 c-43 0 -51 -3 -55 -22z"/>
 <path d="M1676 3288 c-3 -29 -8 -100 -12 -158 -4 -58 -9 -109 -12 -115 -5 -8 -39 -379 -45 -500 l-2 -30 214 -3 213 -2 -7 87 c-3 49 -10 102 -15 118 -5 17 -14 102 -20 190 -6 88 -13 171 -15 185 -5 36 -24 231 -25 258 0 22 -2 22 -134 22 l-134 0 -6 -52z"/>
 <path d="M2055 3293 c3 -27 10 -115 15 -198 6 -82 15 -175 20 -205 6 -30 10 -64 10 -75 0 -18 27 -327 29 -332 1 -2 37 -3 82 -3 l81 0 -6 28 c-3 15 -8 52 -11 82 -4 30 -11 69 -16 85 -6 17 -17 77 -25 135 -8 58 -16 116 -19 130 -2 14 -11 68 -19 120 -9 52 -18 104 -21 115 -7 29 -23 127 -24 148 -1 14 -10 17 -51 17 l-50 0 5 -47z"/>
 <path d="M745 1302 c-9 -10 -5 -92 5 -92 6 0 10 4 10 9 0 4 20 24 45 44 26 19 42 38 37 41 -12 7 -90 5 -97 -2z"/>
 <path d="M1160 1299 c0 -16 69 -54 99 -54 33 0 34 -1 45 -55 31 -151 146 -226 261 -170 54 26 75 61 75 125 0 84 -54 127 -131 105 -18 -5 -36 -15 -41 -22 -13 -21 -9 -85 6 -97 23 -19 70 -10 74 14 7 49 13 63 28 69 21 8 43 -21 44 -57 0 -52 -56 -107 -110 -107 -61 0 -120 68 -120 138 0 32 7 49 31 77 17 19 27 35 23 36 -34 4 -284 3 -284 -2z"/>
 </g>

</svg>