<?xml version="1.0" encoding="utf-8"?>
<!-- Generator: Adobe Illustrator 22.1.0, SVG Export Plug-In . SVG Version: 6.00 Build 0)  -->
<svg version="1.1" id="Layer_1" xmlns="http://www.w3.org/2000/svg" xmlns:xlink="http://www.w3.org/1999/xlink" x="0px" y="0px"
	 viewBox="0 0 750 1334" style="enable-background:new 0 0 750 1334;" xml:space="preserve">
<style type="text/css">
	.st0{fill:none;}
</style>
<g>
	<path class="st0" d="M663.9,664.1C663.9,664.1,663.9,664.1,663.9,664.1C663.9,664.1,663.9,664,663.9,664.1z M675.5,606
		c0,0.6,9.3,0.6,9.1-8.6s-0.2-44-0.2-44s1.9-9.1-7.8-8.8c-9.7,0.4-47.6,0.2-47.6,0.2l0.2-13.9l48.1,0.2c0,0,8.8-1.1,8.6-9.4
		c-0.2-8.2-0.2-45.6-0.2-45.6s1.5-8.2-7.8-8.2c-9.4,0-48.9,0-48.9,0v-12.8c-0.6,0,1.3-6.3-5.5-6.1c-6.9,0.2-11.6,0-11.6,0
		s-5.1-1.1-5.3,7c-0.2,8.2,0,12.9,0,12.9L227,469.2l0.2-12.4c0,0,1.6-6.9-5.7-6.7c-7.3,0.2-11.8,0.2-11.8,0.2s-4.7-1.9-4.7,5.9
		c0,7.8-0.2,10.6-0.2,10.6l-49.6,1c0,0-4.3-0.3-6.2,4.1l-0.6,51.8c0,0-1.5,6.3,8.6,6.6c10.1,0.3,47.4,0.5,47.4,0.5l-0.3,13.2
		l-46.8,0.5c0,0-8.4-1.8-8.6,8.1c-0.3,9.9,0.3,44.9,0.3,44.9s-2.5,8.9,10.1,8.6c12.7-0.3,45.9,0.3,45.9,0.3l0,33.6l-50.8,0.5
		c0,0-5.8,0-5.8,5c0,5,0.5,10.6,0.5,10.6s-1.3,5,6,4.8c7.3-0.3,15.6,0,15.6,0s-1.5,1.3-1.5,3.3c0,2-0.3,7.8-0.3,7.8s-0.5,4,8.6,4
		s18.7,0,18.7,0v112.7c0.3,0-0.7,4,8.5,3.8c9.2-0.2,19.4-0.2,19.4-0.2s3.4-1.2,3.6-4c0.2-2.8,0-111.8,0-111.3H606v107.6
		c0,0-2.2,7.3,13.1,6.9c15.3-0.4,11.7-0.2,11.7-0.2s6.2,1.8,6.2-7.1c0-8.9,0-108.2,0-108.2h21.3c0,0,6-0.8,5.8-6.7
		c-0.1-4.4-0.2-5.1-0.1-5.2c-0.1-0.2-1-3.4-2.7-3.6c-1.7-0.2,19.6-0.2,19.6-0.2s3.2-0.2,3.4-7.4c0.2-7.2,1.1-12.9-6.7-12.9
		c-7.8,0-49.6,0-49.6,0v-34H675.5z M229,640v-32.7l376.7-0.3l0.3,33H229z M606,544.8L227.8,545l0.2-13h378.2L606,544.8z"/>
</g>
</svg>
