<!DOCTYPE svg PUBLIC "-//W3C//DTD SVG 20010904//EN" "http://www.w3.org/TR/2001/REC-SVG-20010904/DTD/svg10.dtd">
<svg version="1.0" xmlns="http://www.w3.org/2000/svg" width="238px" height="631px" viewBox="0 0 2380 6310" preserveAspectRatio="xMidYMid meet">
<g id="layer101" fill="#231e20" stroke="none">
 <path d="M0 3155 l0 -3155 1190 0 1190 0 0 3155 0 3155 -1190 0 -1190 0 0 -3155z"/>
 </g>
<g id="layer102" fill="#fefefe" stroke="none">
 <path d="M0 3155 l0 -3155 1190 0 1190 0 0 3155 0 3155 -1190 0 -1190 0 0 -3155z m1620 2766 c0 -4 -23 -41 -50 -82 -27 -41 -50 -78 -50 -83 0 -5 7 -17 16 -27 14 -16 12 -28 -25 -139 -77 -232 -105 -384 -104 -570 0 -135 22 -278 59 -383 16 -45 13 -67 -10 -67 -18 0 -28 -29 -26 -78 3 -56 2 -60 -20 -67 -19 -6 -20 -15 -19 -217 1 -185 -1 -213 -15 -224 -18 -12 -21 -130 -45 -1679 -8 -530 -8 -542 13 -629 19 -80 24 -90 48 -98 16 -6 28 -14 28 -19 0 -5 15 -26 33 -46 25 -28 37 -53 45 -98 67 -371 74 -400 99 -421 21 -18 23 -26 17 -58 -3 -21 -13 -40 -20 -43 -8 -3 -38 -43 -66 -90 -29 -46 -62 -98 -72 -115 -10 -16 -22 -44 -25 -61 l-7 -32 -78 4 -79 3 23 -37 23 -37 -29 -24 c-36 -29 -42 -29 -71 -2 -27 26 -29 40 -7 74 9 13 14 27 11 30 -3 3 -39 9 -79 12 -55 5 -73 11 -74 22 -1 46 -84 185 -114 193 -10 3 -28 23 -39 45 l-21 41 28 23 c26 22 30 36 61 218 54 315 53 314 94 350 20 17 39 40 42 51 4 12 15 19 30 19 17 0 26 7 30 23 37 167 36 135 26 766 -6 333 -13 831 -17 1106 -6 472 -8 501 -25 513 -18 12 -19 30 -19 220 0 196 -1 208 -20 220 -16 10 -20 23 -20 72 0 51 -3 61 -22 71 -13 6 -24 13 -26 14 -1 1 7 28 19 61 92 263 71 616 -56 969 l-34 93 20 26 20 25 -37 53 c-20 29 -45 64 -56 77 -10 13 -18 28 -18 32 0 5 160 9 355 9 195 0 355 -4 355 -9z"/>
 <path d="M1149 1494 c-6 -8 -9 -17 -5 -21 9 -9 235 -28 243 -20 3 4 2 16 -3 27 -8 19 -20 21 -116 25 -85 3 -109 1 -119 -11z"/>
 <path d="M1081 1388 c-5 -18 -22 -102 -36 -187 -14 -84 -29 -171 -34 -193 -7 -28 -6 -41 2 -43 16 -6 289 -35 323 -35 l26 0 -6 138 c-11 258 -17 321 -35 326 -9 2 -56 7 -106 11 -49 3 -97 8 -107 11 -11 3 -19 -5 -27 -28z"/>
 <path d="M1410 1401 c-13 -8 -14 -29 -8 -138 11 -207 18 -307 24 -312 2 -3 25 5 49 17 38 18 45 26 41 44 -3 13 -17 82 -32 153 -14 72 -27 135 -28 140 -2 6 -6 31 -11 58 -8 49 -10 52 -35 38z"/>
 </g>

</svg>