<!DOCTYPE svg PUBLIC "-//W3C//DTD SVG 20010904//EN" "http://www.w3.org/TR/2001/REC-SVG-20010904/DTD/svg10.dtd">
<svg version="1.0" xmlns="http://www.w3.org/2000/svg" width="544px" height="562px" viewBox="0 0 5440 5620" preserveAspectRatio="xMidYMid meet">
<g id="layer101" fill="#090808" stroke="none">
 <path d="M650 5285 l0 -335 -74 0 c-41 0 -78 -4 -81 -10 -3 -5 -2 -25 4 -44 l9 -35 -61 -3 -62 -3 0 -55 0 -55 158 -3 157 -3 0 -99 0 -99 -157 -3 -158 -3 0 -175 0 -175 158 -3 157 -3 0 -39 0 -40 -148 0 c-102 0 -152 -4 -160 -12 -8 -8 -12 -63 -12 -180 l0 -168 163 0 c149 0 164 -2 164 -17 -1 -10 0 -35 1 -56 l2 -38 63 3 62 3 3 53 3 52 1104 0 1104 0 3 -52 3 -53 65 0 65 0 3 53 3 52 148 0 c108 0 151 3 157 13 5 6 7 86 4 177 l-5 165 -152 3 -153 3 0 39 0 39 153 3 152 3 3 178 2 177 -155 0 -155 0 0 100 0 99 158 3 157 3 -1 40 c-3 79 1 75 -57 75 l-54 0 1 43 1 42 -77 3 -78 3 0 334 0 335 -89 0 c-72 0 -90 -3 -95 -16 -3 -9 -6 -159 -6 -335 l0 -319 -1105 0 -1105 0 0 335 0 335 -95 0 -95 0 0 -335z m2400 -645 l0 -100 -1105 0 -1105 0 0 100 0 100 1105 0 1105 0 0 -100z m2 -500 l4 -40 -1108 0 -1108 0 0 40 0 40 1104 0 1104 0 4 -40z"/>
 <path d="M4372 5588 c14 -18 41 -57 62 -86 l37 -53 -20 -25 -20 -26 30 -81 c98 -270 136 -524 110 -746 -11 -87 -41 -217 -66 -282 -4 -10 3 -19 20 -27 23 -11 25 -17 25 -72 0 -49 4 -62 20 -72 19 -12 20 -24 20 -220 0 -190 1 -208 19 -220 17 -12 19 -41 25 -513 4 -275 11 -773 17 -1106 10 -631 11 -599 -26 -766 -4 -16 -13 -23 -30 -23 -15 0 -26 -7 -30 -19 -3 -11 -22 -34 -42 -51 -41 -36 -40 -35 -94 -350 -31 -182 -35 -196 -61 -218 l-28 -23 21 -41 c11 -22 29 -42 39 -45 24 -6 99 -124 108 -172 l8 -36 73 -7 c40 -3 75 -9 78 -12 3 -3 -2 -17 -11 -30 -22 -34 -20 -48 7 -74 29 -27 35 -27 71 2 l29 24 -23 37 -23 37 79 -3 78 -4 7 32 c3 17 15 45 25 61 10 17 43 69 72 115 28 47 58 87 66 90 7 3 17 22 20 43 6 32 4 40 -17 58 -25 21 -32 50 -99 421 -8 45 -20 70 -45 98 -18 20 -33 41 -33 46 0 5 -13 14 -28 19 -26 9 -31 18 -49 98 -20 86 -20 107 -12 629 24 1534 27 1667 45 1679 14 11 16 39 15 224 -1 202 0 211 19 217 22 7 22 8 20 82 -1 48 1 54 24 63 30 11 31 14 12 68 -22 62 -54 228 -61 317 -13 158 25 392 101 621 41 124 44 138 30 153 -22 25 -21 31 22 92 20 30 45 66 55 82 l17 27 -366 0 -366 0 24 -32z m462 -4418 c5 -11 6 -23 3 -27 -8 -8 -234 11 -243 20 -4 4 -1 13 5 21 10 12 34 14 119 11 96 -4 108 -6 116 -25z m-169 -75 c50 -4 97 -9 106 -11 18 -5 26 -75 35 -321 l6 -143 -30 0 c-37 0 -303 29 -319 34 -8 3 -9 16 -2 44 5 22 20 109 34 193 32 189 41 221 63 215 10 -3 58 -8 107 -11z m230 -42 c5 -27 9 -52 11 -58 1 -5 14 -68 28 -140 15 -71 29 -140 32 -153 4 -18 -3 -26 -41 -44 -24 -12 -47 -20 -49 -17 -6 6 -16 128 -24 302 -6 118 -5 140 8 148 25 14 27 11 35 -38z"/>
 </g>
<g id="layer102" fill="#fefefe" stroke="none">
 <path d="M0 2810 l0 -2810 2720 0 2720 0 0 2810 0 2810 -179 0 -179 0 -52 -75 c-64 -94 -66 -101 -46 -124 16 -18 15 -27 -28 -155 -76 -229 -114 -463 -101 -621 7 -89 39 -255 61 -317 19 -54 18 -57 -12 -68 -23 -9 -25 -15 -24 -63 2 -74 2 -75 -20 -82 -19 -6 -20 -15 -19 -217 1 -185 -1 -213 -15 -224 -18 -12 -21 -145 -45 -1679 -8 -522 -8 -543 12 -629 18 -80 23 -89 49 -98 15 -5 28 -14 28 -19 0 -5 15 -26 33 -46 25 -28 37 -53 45 -98 67 -371 74 -400 99 -421 21 -18 23 -26 17 -58 -3 -21 -13 -40 -20 -43 -8 -3 -38 -43 -66 -90 -29 -46 -62 -98 -72 -115 -10 -16 -22 -44 -25 -61 l-7 -32 -78 4 -79 3 23 -37 23 -37 -29 -24 c-36 -29 -45 -30 -72 -1 -26 28 -27 40 -6 73 9 13 14 27 11 30 -3 3 -38 9 -78 12 l-73 7 -8 36 c-9 48 -84 166 -108 172 -10 3 -28 23 -39 45 l-21 41 28 23 c26 22 30 36 61 218 54 315 53 314 94 350 20 17 39 40 42 51 4 12 15 19 30 19 17 0 26 7 30 22 37 168 36 136 26 767 -6 333 -13 831 -17 1106 -6 472 -8 501 -25 513 -18 12 -19 30 -19 220 0 196 -1 208 -20 220 -16 10 -20 23 -20 72 0 55 -2 61 -25 72 -17 8 -24 17 -20 27 25 65 55 195 66 282 26 222 -12 476 -110 746 l-30 81 20 26 20 25 -37 53 c-21 29 -48 68 -62 86 l-24 32 -554 0 -554 0 0 -335 0 -334 78 -3 77 -3 -1 -42 -1 -43 54 0 c58 0 54 4 57 -75 l1 -40 -157 -3 -158 -3 0 -99 0 -100 155 0 155 0 -2 -177 -3 -178 -152 -3 -153 -3 0 -39 0 -39 153 -3 152 -3 5 -165 c3 -91 1 -171 -4 -177 -6 -10 -49 -13 -157 -13 l-148 0 -3 -52 -3 -53 -65 0 -65 0 -3 53 -3 52 -1104 0 -1104 0 -3 -52 -3 -53 -62 -3 -63 -3 -2 38 c-1 21 -2 46 -1 56 0 15 -15 17 -164 17 l-163 0 0 168 c0 117 4 172 12 180 8 8 58 12 160 12 l148 0 0 40 0 39 -157 3 -158 3 0 175 0 175 158 3 157 3 0 99 0 99 -157 3 -158 3 0 55 0 55 62 3 61 3 -9 35 c-6 19 -7 39 -4 44 3 6 40 10 81 10 l74 0 0 335 0 335 -325 0 -325 0 0 -2810z"/>
 <path d="M840 5285 l0 -335 1105 0 1105 0 0 319 c0 176 3 326 6 335 6 15 -96 16 -1105 16 l-1111 0 0 -335z"/>
 <path d="M840 4640 l0 -100 1105 0 1105 0 0 100 0 100 -1105 0 -1105 0 0 -100z"/>
 <path d="M840 4140 l0 -40 1108 0 1108 0 -4 40 -4 40 -1104 0 -1104 0 0 -40z"/>
 <path d="M4599 1184 c-6 -8 -9 -17 -5 -21 9 -9 235 -28 243 -20 3 4 2 16 -3 27 -8 19 -20 21 -116 25 -85 3 -109 1 -119 -11z"/>
 <path d="M4531 1078 c-5 -18 -22 -102 -36 -187 -14 -84 -29 -171 -34 -193 -7 -28 -6 -41 2 -44 16 -5 282 -34 319 -34 l30 0 -6 143 c-9 246 -17 316 -35 321 -9 2 -56 7 -106 11 -49 3 -97 8 -107 11 -11 3 -19 -5 -27 -28z"/>
 <path d="M4860 1091 c-13 -8 -14 -30 -8 -148 8 -174 18 -296 24 -302 2 -3 25 5 49 17 38 18 45 26 41 44 -3 13 -17 82 -32 153 -14 72 -27 135 -28 140 -2 6 -6 31 -11 58 -8 49 -10 52 -35 38z"/>
 </g>

</svg>