<!DOCTYPE svg PUBLIC "-//W3C//DTD SVG 20010904//EN" "http://www.w3.org/TR/2001/REC-SVG-20010904/DTD/svg10.dtd">
<svg version="1.0" xmlns="http://www.w3.org/2000/svg" width="732px" height="486px" viewBox="0 0 7320 4860" preserveAspectRatio="xMidYMid meet">
<g id="layer101" fill="#211d1e" stroke="none">
 <path d="M0 2430 l0 -2430 3660 0 3660 0 0 2430 0 2430 -3660 0 -3660 0 0 -2430z"/>
 </g>
<g id="layer102" fill="#ffffff" stroke="none">
 <path d="M0 2430 l0 -2430 3660 0 3660 0 0 2430 0 2430 -3660 0 -3660 0 0 -2430z m1335 2044 c20 -15 20 -30 25 -687 l5 -672 2208 -3 2207 -2 2 132 c1 73 2 377 3 675 2 420 5 546 15 558 17 21 325 22 352 1 17 -12 18 -60 20 -687 l3 -674 148 -1 c117 0 151 -4 158 -15 5 -8 8 -47 6 -86 -4 -86 -7 -84 114 -80 113 3 122 -6 123 -113 1 -45 -5 -87 -12 -101 l-13 -24 -319 3 -320 3 0 -179 c0 -144 3 -185 16 -211 l16 -32 303 3 c250 2 305 1 316 -11 17 -19 17 -673 0 -679 -6 -2 -11 -9 -11 -15 0 -9 -81 -11 -320 -9 l-320 3 0 -81 0 -80 243 -2 c133 -2 277 -3 320 -3 53 1 77 -3 77 -11 0 -7 5 -14 10 -16 7 -2 12 -116 14 -333 3 -323 2 -330 -18 -352 -21 -23 -23 -23 -333 -23 l-313 0 0 -103 c0 -67 -4 -107 -12 -115 -15 -15 -239 -17 -254 -2 -6 6 -9 52 -7 114 l4 104 -193 6 c-106 4 -1103 6 -2216 4 l-2022 -3 -3 -102 c-5 -134 -3 -133 -149 -133 -77 1 -118 5 -130 14 -14 10 -18 32 -20 117 l-3 104 -321 3 -321 2 2 356 c3 372 3 376 45 373 8 -1 147 -1 308 0 l293 1 -3 78 -3 77 -318 0 c-275 0 -317 2 -318 15 -1 12 0 682 1 700 0 3 143 5 317 5 l318 0 0 205 0 205 -312 2 c-172 1 -317 5 -323 8 -12 8 -10 198 2 218 5 8 40 12 100 13 126 1 128 1 128 24 0 11 -4 20 -10 20 -5 0 -10 23 -10 51 0 81 7 84 184 84 l151 0 0 678 c0 629 1 677 17 677 9 0 20 5 23 10 4 6 67 10 158 10 120 -1 156 -4 172 -16z"/>
 <path d="M1348 2683 c-9 -18 8 -383 18 -393 7 -7 683 -9 2215 -8 l2204 3 0 175 c0 96 4 181 8 188 5 7 6 19 3 27 -5 13 -294 15 -2225 15 -1221 0 -2221 -3 -2223 -7z"/>
 <path d="M1350 1485 l0 -75 2218 2 2217 3 0 70 0 70 -2217 3 -2218 2 0 -75z"/>
 </g>

</svg>