<!DOCTYPE svg PUBLIC "-//W3C//DTD SVG 20010904//EN" "http://www.w3.org/TR/2001/REC-SVG-20010904/DTD/svg10.dtd">
<svg version="1.0" xmlns="http://www.w3.org/2000/svg" width="544px" height="562px" viewBox="0 0 5440 5620" preserveAspectRatio="xMidYMid meet">
<g id="layer101" fill="#080808" stroke="none">
 <path d="M0 2810 l0 -2810 2720 0 2720 0 0 2810 0 2810 -2720 0 -2720 0 0 -2810z"/>
 </g>
<g id="layer102" fill="#fefefe" stroke="none">
 <path d="M0 2810 l0 -2810 2720 0 2720 0 0 2810 0 2810 -179 0 -179 0 -52 -75 c-64 -94 -66 -101 -46 -124 16 -18 15 -27 -28 -155 -76 -229 -114 -463 -101 -621 7 -89 39 -255 61 -317 19 -54 18 -57 -12 -68 -23 -9 -25 -15 -24 -63 2 -74 2 -75 -20 -82 -19 -6 -20 -15 -19 -217 1 -185 -1 -213 -15 -224 -18 -12 -21 -145 -45 -1679 -8 -522 -8 -543 12 -629 18 -80 23 -89 49 -98 15 -5 28 -14 28 -19 0 -5 15 -26 33 -46 25 -28 37 -53 45 -98 67 -371 74 -400 99 -421 21 -18 23 -26 17 -58 -3 -21 -13 -40 -20 -43 -8 -3 -38 -43 -66 -90 -29 -46 -62 -98 -72 -115 -10 -16 -22 -44 -25 -61 l-7 -32 -78 4 -79 3 23 -37 23 -37 -29 -24 c-36 -29 -45 -30 -72 -1 -26 28 -27 40 -6 73 9 13 14 27 11 30 -3 3 -38 9 -78 12 l-73 7 -8 36 c-9 48 -84 166 -108 172 -10 3 -28 23 -39 45 l-21 41 28 23 c26 22 30 36 61 218 54 315 53 314 94 350 20 17 39 40 42 51 4 12 15 19 30 19 17 0 26 7 30 22 37 168 36 136 26 767 -6 333 -13 831 -17 1106 -6 472 -8 501 -25 513 -18 12 -19 30 -19 220 0 196 -1 208 -20 220 -16 10 -20 23 -20 72 0 55 -2 61 -25 72 -17 8 -24 17 -20 27 25 65 55 195 66 282 26 222 -12 476 -110 746 l-30 81 20 26 20 25 -37 53 c-21 29 -48 68 -62 86 l-24 32 -554 0 -554 0 0 -335 0 -335 80 0 80 0 0 -39 c0 -42 15 -55 53 -46 36 8 48 -8 50 -66 l2 -54 -157 -3 -158 -3 0 -87 c0 -48 4 -92 8 -99 5 -9 53 -13 156 -15 l148 -3 0 -167 c0 -92 -3 -172 -7 -178 -4 -6 -64 -10 -156 -10 l-149 0 0 -40 0 -39 156 -3 155 -3 1 -175 1 -175 -156 -3 -156 -3 -3 -56 -3 -57 -65 0 -65 0 -3 57 -3 57 -1102 0 -1103 0 4 -34 c7 -60 -10 -76 -81 -76 l-63 0 1 55 1 55 -163 0 -163 0 0 180 0 180 160 0 160 0 0 40 0 40 -160 0 -160 0 0 180 0 180 160 0 160 0 0 100 0 99 -157 3 -158 3 -3 57 c-3 49 0 57 18 63 11 3 29 3 40 0 11 -3 29 -3 41 0 18 6 20 12 14 46 l-7 39 81 0 81 0 0 335 0 335 -325 0 -325 0 0 -2810z"/>
 <path d="M844 5604 c3 -9 6 -159 6 -335 l0 -319 1100 0 1100 0 0 335 0 335 -1106 0 c-1005 0 -1106 -1 -1100 -16z"/>
 <path d="M840 4656 c0 -46 3 -91 6 -100 6 -14 112 -16 1105 -16 l1099 0 0 100 0 100 -1105 0 -1105 0 0 -84z"/>
 <path d="M840 4140 l0 -40 1108 0 1108 0 -4 40 -4 40 -1104 0 -1104 0 0 -40z"/>
 <path d="M4599 1184 c-6 -8 -9 -17 -5 -21 9 -9 235 -28 243 -20 3 4 2 16 -3 27 -8 19 -20 21 -116 25 -85 3 -109 1 -119 -11z"/>
 <path d="M4531 1078 c-5 -18 -22 -102 -36 -187 -14 -84 -29 -171 -34 -193 -7 -28 -6 -41 2 -44 16 -5 282 -34 319 -34 l30 0 -6 143 c-9 246 -17 316 -35 321 -9 2 -56 7 -106 11 -49 3 -97 8 -107 11 -11 3 -19 -5 -27 -28z"/>
 <path d="M4860 1091 c-13 -8 -14 -30 -8 -148 8 -174 18 -296 24 -302 2 -3 25 5 49 17 38 18 45 26 41 44 -3 13 -17 82 -32 153 -14 72 -27 135 -28 140 -2 6 -6 31 -11 58 -8 49 -10 52 -35 38z"/>
 </g>

</svg>