<!DOCTYPE svg PUBLIC "-//W3C//DTD SVG 20010904//EN" "http://www.w3.org/TR/2001/REC-SVG-20010904/DTD/svg10.dtd">
<svg version="1.0" xmlns="http://www.w3.org/2000/svg" width="852px" height="978px" viewBox="0 0 8520 9780" preserveAspectRatio="xMidYMid meet">
<g id="layer101" fill="#000000" stroke="none">
 <path d="M3964 9740 c-66 -7 -106 -29 -161 -89 -68 -72 -64 -6 -58 -988 3 -488 8 -1115 11 -1393 5 -486 1 -650 -27 -980 -12 -144 -63 -409 -87 -456 -34 -66 -358 -414 -472 -508 -19 -15 -64 -56 -100 -90 -91 -86 -308 -259 -350 -278 -19 -9 -51 -27 -70 -40 -68 -45 -133 -68 -192 -68 -50 0 -74 13 -94 51 -14 28 -14 34 0 70 31 78 12 145 -51 174 -53 25 -108 -1 -154 -73 l-27 -43 -56 69 c-85 105 -142 123 -201 64 -34 -33 -40 -61 -25 -121 15 -65 3 -91 -45 -91 -36 0 -45 7 -75 56 -10 18 -35 45 -56 60 -33 25 -46 29 -104 29 -56 0 -72 -4 -101 -26 -38 -29 -79 -99 -79 -134 0 -28 -36 -40 -75 -25 -87 33 -175 -24 -175 -113 0 -20 -7 -43 -16 -51 -20 -20 -58 -21 -74 -1 -7 8 -18 15 -24 15 -12 0 -23 16 -63 89 -39 70 -62 91 -100 91 -69 0 -114 -39 -132 -115 -11 -45 -17 -53 -58 -75 -61 -32 -103 -76 -103 -107 0 -24 32 -79 54 -96 6 -4 34 -20 61 -36 l50 -29 5 -81 c6 -91 13 -101 78 -120 51 -14 58 -41 10 -41 -28 1 -38 8 -70 54 -37 53 -86 86 -129 86 -30 0 -127 -48 -143 -72 -12 -17 -18 -17 -65 -7 -29 6 -65 17 -79 25 -15 8 -48 14 -75 14 -57 0 -81 -20 -97 -81 -16 -57 -6 -100 30 -134 17 -16 30 -32 30 -36 0 -4 -22 -20 -48 -34 -56 -30 -82 -68 -82 -119 0 -29 7 -41 45 -73 66 -55 61 -79 -23 -111 -72 -28 -85 -47 -80 -121 l3 -46 45 -7 c69 -10 100 -19 100 -30 0 -18 -21 -48 -34 -48 -19 0 -54 -41 -62 -73 -5 -23 -1 -34 22 -58 15 -16 32 -29 38 -29 5 0 22 -12 37 -26 15 -14 64 -44 110 -67 73 -36 87 -48 105 -85 32 -64 72 -101 115 -108 34 -6 38 -9 37 -37 -1 -32 39 -77 68 -77 10 0 14 -8 12 -22 -2 -18 -11 -24 -35 -26 -17 -2 -37 -10 -43 -18 -7 -8 -18 -14 -25 -14 -22 0 -55 -50 -55 -82 0 -21 11 -41 34 -64 28 -28 41 -34 78 -34 25 0 59 -7 76 -16 28 -13 32 -21 32 -54 0 -33 -5 -42 -29 -55 -41 -21 -71 -62 -71 -97 0 -44 60 -102 100 -96 32 5 40 -5 40 -52 0 -40 26 -97 54 -115 20 -13 27 -14 58 -1 19 8 40 22 48 30 7 9 17 16 23 16 6 0 20 8 31 19 32 28 75 32 121 11 68 -32 80 -27 119 53 l21 42 89 3 88 3 -7 -43 c-3 -24 -13 -58 -21 -76 l-15 -32 -70 2 c-65 3 -72 1 -93 -23 -28 -32 -42 -115 -24 -138 20 -25 38 -60 38 -72 0 -7 -22 -36 -50 -65 -27 -29 -50 -60 -50 -68 0 -33 38 -96 58 -96 5 0 17 -9 27 -20 10 -11 23 -20 28 -20 6 0 19 -8 29 -17 11 -10 40 -20 66 -23 l47 -5 6 -65 c7 -84 17 -105 76 -161 51 -49 82 -64 151 -74 33 -5 42 -11 38 -23 -18 -69 -17 -95 6 -119 13 -14 42 -33 65 -44 23 -10 45 -24 48 -30 4 -5 18 -14 31 -19 20 -8 24 -17 24 -48 0 -38 -22 -72 -47 -72 -25 0 -25 -57 -1 -125 12 -33 46 -75 61 -75 5 0 20 -9 34 -20 15 -12 41 -20 63 -20 57 0 63 -15 55 -120 l-7 -90 35 -35 c33 -33 38 -35 105 -35 l71 0 31 -65 c38 -80 65 -101 106 -83 36 15 74 48 74 63 0 7 9 20 20 30 16 15 32 17 89 13 38 -3 74 -2 79 1 5 3 16 26 25 51 20 60 54 66 102 20 35 -34 52 -35 153 -14 28 6 38 1 77 -35 60 -55 90 -55 150 0 36 34 49 40 72 35 15 -4 43 -2 62 4 36 10 111 75 111 95 0 7 9 20 20 30 11 10 20 24 20 32 0 8 12 13 30 13 18 0 30 -5 30 -13 0 -7 19 -32 43 -55 48 -47 96 -63 116 -38 8 9 19 16 25 16 7 0 30 18 51 40 21 22 44 40 50 40 33 0 115 131 115 183 0 43 73 84 137 78 18 -2 43 -59 49 -116 6 -51 5 -53 -40 -104 -25 -28 -46 -61 -46 -72 0 -10 18 -39 41 -64 39 -42 41 -47 34 -87 -3 -24 -7 -72 -8 -108 l-2 -65 40 -8 c94 -19 100 -19 128 3 15 12 27 27 27 34 0 6 21 33 47 59 49 50 89 61 113 31 16 -18 74 -44 100 -44 22 0 30 -27 30 -107 0 -56 3 -63 31 -87 36 -30 67 -32 137 -10 62 20 116 64 142 114 11 21 32 48 47 59 24 20 35 21 107 15 109 -8 120 2 125 124 2 65 7 90 20 99 16 13 89 49 149 73 46 18 54 41 50 129 l-3 76 32 3 c27 3 34 -2 47 -27 9 -16 20 -59 25 -95 14 -100 54 -146 126 -146 42 0 80 34 90 81 4 16 10 31 13 33 4 2 26 -7 50 -21 l42 -25 0 -85 c0 -100 16 -142 64 -168 24 -13 45 -16 76 -12 40 5 90 39 90 61 0 6 9 22 20 36 l20 25 23 -25 c39 -44 70 -60 115 -60 61 0 77 12 97 72 26 79 45 86 98 35 54 -53 79 -67 119 -67 69 0 96 56 67 139 -6 18 -9 35 -5 38 3 3 32 -8 65 -26 70 -37 82 -38 115 -8 21 17 33 50 61 160 19 76 35 146 35 157 0 10 10 27 23 37 42 33 57 65 57 120 0 28 -4 63 -10 77 -9 26 -9 26 39 26 48 0 49 1 56 36 9 50 26 84 42 84 7 0 32 -13 55 -30 43 -32 93 -39 142 -20 43 16 42 49 -4 145 -47 98 -47 118 2 109 50 -10 88 -30 138 -74 75 -68 136 -67 189 4 l33 44 79 4 c64 2 83 7 100 24 20 20 20 25 8 79 -14 63 -10 70 51 87 14 4 42 13 63 20 l39 13 -7 50 c-13 92 -9 128 19 169 30 45 31 48 12 110 -10 31 -12 72 -9 125 5 71 4 80 -16 100 -15 15 -33 21 -69 21 -49 0 -82 16 -113 55 -9 11 -26 31 -38 44 -32 37 -27 63 19 91 38 24 100 97 100 118 0 6 24 4 63 -5 68 -17 205 -32 224 -25 19 6 33 70 33 152 l0 75 97 -3 c137 -5 136 -7 137 149 1 68 8 150 16 181 13 53 12 65 -8 155 -26 116 -28 180 -7 203 23 25 64 145 71 205 6 45 3 55 -25 97 -17 26 -42 71 -55 100 -26 58 -40 74 -71 80 -14 2 -26 21 -41 62 -11 32 -29 63 -40 69 -29 15 -29 15 -3 36 21 17 25 31 32 123 12 162 10 188 -21 238 -33 53 -52 64 -155 86 -93 20 -102 33 -94 128 5 51 2 61 -17 81 -50 50 -254 145 -312 145 -17 0 -45 5 -62 11 -25 8 -42 7 -81 -6 -42 -14 -52 -22 -61 -51 -26 -79 -86 -62 -117 32 -16 52 -22 59 -58 71 -52 19 -126 20 -195 4 -30 -7 -93 -15 -140 -18 -79 -4 -87 -3 -120 21 -58 42 -82 50 -151 51 -60 0 -75 -5 -170 -52 -57 -29 -111 -53 -119 -53 -8 0 -56 37 -105 83 -159 144 -217 192 -357 293 -164 119 -249 169 -419 245 -385 173 -903 635 -1034 924 -67 146 -90 408 -89 980 1 451 18 776 63 1220 12 116 26 264 32 330 5 66 14 156 19 200 17 154 30 338 24 347 -16 25 -122 81 -206 107 -82 26 -116 34 -193 45 -11 1 -48 0 -81 -4z m607 -3949 c156 -53 256 -128 496 -368 173 -173 175 -176 235 -323 39 -93 199 -562 195 -567 -7 -7 -129 33 -181 59 -171 86 -261 181 -361 378 -15 30 -41 70 -56 88 -16 18 -29 44 -29 58 0 36 -86 180 -146 244 -148 158 -324 386 -324 421 0 33 90 38 171 10z m-171 -400 c0 -5 20 -31 44 -58 91 -101 260 -401 219 -389 -10 3 -31 8 -48 12 -77 18 -143 73 -184 153 -21 41 -55 167 -66 244 -6 43 -4 47 14 47 12 0 21 -4 21 -9z m-638 -74 c76 -45 108 -118 139 -312 5 -33 14 -89 20 -125 6 -36 13 -139 15 -230 4 -146 2 -171 -15 -215 -10 -27 -25 -54 -33 -58 -26 -17 -93 12 -159 69 -125 109 -198 135 -264 94 -39 -24 -58 -19 -86 26 -27 44 -66 74 -97 74 -27 0 -98 -49 -151 -104 -39 -41 -71 -47 -71 -15 0 75 111 323 228 509 85 135 199 247 294 289 60 27 134 27 180 -2z m1947 -136 c83 -42 253 -173 396 -304 l69 -63 2 -61 c1 -39 8 -74 22 -99 30 -56 34 -84 14 -91 -40 -15 -72 -47 -72 -73 0 -54 28 -118 90 -202 53 -73 70 -90 113 -107 60 -25 110 -26 184 -5 68 20 74 15 97 -81 13 -53 46 -218 46 -232 0 -1 -19 9 -42 22 -75 41 -83 40 -131 -4 -24 -23 -49 -41 -54 -41 -6 0 -18 17 -27 38 -9 20 -31 54 -49 76 -39 45 -52 44 -124 -11 -34 -26 -51 -33 -62 -26 -15 10 -18 14 -49 78 -12 26 -29 43 -48 50 -16 6 -34 13 -40 17 -22 14 -182 264 -227 353 -118 237 -289 691 -299 796 l-5 46 56 -17 c31 -9 94 -36 140 -59z m-1004 -530 c100 -44 206 -241 241 -451 8 -47 14 -88 14 -93 0 -15 -74 24 -133 72 -139 110 -312 334 -332 429 -6 31 -4 33 37 52 49 23 106 20 173 -9z m620 -233 c110 -55 279 -204 350 -307 47 -68 47 -69 29 -95 -11 -17 -19 -54 -22 -102 -3 -41 -8 -77 -13 -79 -4 -3 -28 5 -53 17 -44 21 -46 21 -66 3 -11 -10 -24 -31 -28 -46 l-7 -29 -75 52 c-110 77 -205 171 -234 231 -13 29 -29 90 -36 137 -16 116 -42 272 -47 288 -6 15 114 -27 202 -70z m-4344 -734 c15 -19 30 -55 34 -80 6 -40 4 -47 -18 -64 -25 -20 -47 -79 -47 -126 0 -28 14 -41 82 -79 30 -16 21 -40 -34 -94 -49 -47 -56 -51 -90 -45 -25 4 -44 0 -61 -11 -28 -18 -61 -80 -52 -95 3 -6 -3 -10 -14 -10 -17 0 -104 16 -138 26 -9 2 -4 25 14 81 14 43 27 80 29 82 2 2 30 8 62 12 48 7 62 14 90 43 33 37 39 66 22 111 -13 34 6 72 54 109 39 29 45 59 26 125 -17 60 2 67 41 15z"/>
 </g>

</svg>