<svg xmlns="http://www.w3.org/2000/svg" viewBox="0 0 539.01 345.1"><defs><style>.cls-1{fill-rule:evenodd;}.cls-2{fill:none;stroke:#FFF;stroke-miterlimit:10;}</style></defs><title>Asset 1</title><g id="Layer_2" data-name="Layer 2"><g id="Layer_1-2" data-name="Layer 1"><path class="cls-1" d="M516.5,215.65v0Zm11.59-57.05c0,.58,9.33.58,9.14-8.56s-.19-45-.19-45,1.9-9.14-7.81-8.76-47.62.19-47.62.19l.19-13.88,48.11.19s8.78-1.14,8.59-9.35-.19-45.63-.19-45.63,1.53-8.21-7.83-8.21H481.61V6.78c-.56,0,1.34-6.29-5.51-6.1s-11.62,0-11.62,0-5.14-1.14-5.33,7.05,0,12.87,0,12.87l-379.54.19V7.6s1.27-6.91-6-7c-4.29,0-7.83-.2-10,0-4.15.38-6.48,1.92-6,7v13h-48s-7,.12-9,9v42s.91,10.75,11,11S57,82.41,57,82.41L56.76,95.6H9.61s-8.74.11-9,10,0,41,0,41S-.94,158,11.74,157.75s45.92.25,45.92.25l0,33.6h-48s-8-1-8,4v12s-1.39,5.15,5.91,4.9,15.61,0,15.61,0a4.57,4.57,0,0,0-1.51,3.27c0,2-.25,7.8-.25,7.8s-.5,4,8.56,4H48.61V340.25c.31,0-.69,4,8.5,3.8s19.4-.2,19.4-.2,3.4-1.2,3.6-4,0-111.79,0-111.25h378.5v105s-1,11,5,11h22s4,.16,4-8.76V227.6h21.26s6-.79,5.77-6.74c-.15-4.43-.15-5.13-.14-5.21-.08-.24-1-3.39-2.66-3.57s19.58-.19,19.58-.19,3.23-.19,3.42-7.4,1.14-12.89-6.65-12.89H480.61v-33Zm-448.48,33V158.92l376.68-.32.32,33Zm377-95.19-378-.81v-13l378-1Z"/><path class="cls-2" d="M516.5,215.65v0Zm11.59-57.05c0,.58,9.33.58,9.14-8.56s-.19-45-.19-45,1.9-9.14-7.81-8.76-47.62.19-47.62.19l.19-13.88,48.11.19s8.78-1.14,8.59-9.35-.19-45.63-.19-45.63,1.53-8.21-7.83-8.21H481.61V6.78c-.56,0,1.34-6.29-5.51-6.1s-11.62,0-11.62,0-5.14-1.14-5.33,7.05,0,12.87,0,12.87l-379.54.19V7.6s1.27-6.91-6-7c-4.29,0-7.83-.2-10,0-4.15.38-6.48,1.92-6,7v13h-48s-7,.12-9,9v42s.91,10.75,11,11S57,82.41,57,82.41L56.76,95.6H9.61s-8.74.11-9,10,0,41,0,41S-.94,158,11.74,157.75s45.92.25,45.92.25l0,33.6h-48s-8-1-8,4v12s-1.39,5.15,5.91,4.9,15.61,0,15.61,0a4.57,4.57,0,0,0-1.51,3.27c0,2-.25,7.8-.25,7.8s-.5,4,8.56,4H48.61V340.25c.31,0-.69,4,8.5,3.8s19.4-.2,19.4-.2,3.4-1.2,3.6-4,0-111.79,0-111.25h378.5v105s-1,11,5,11h22s4,.16,4-8.76V227.6h21.26s6-.79,5.77-6.74c-.15-4.43-.15-5.13-.14-5.21-.08-.24-1-3.39-2.66-3.57s19.58-.19,19.58-.19,3.23-.19,3.42-7.4,1.14-12.89-6.65-12.89H480.61v-33Zm-448.48,33V158.92l376.68-.32.32,33Zm377-95.19-378-.81v-13l378-1Z"/></g></g></svg>