<svg xmlns="http://www.w3.org/2000/svg" viewBox="0 0 37.2 274.5"><title>Asset 2</title><g id="Layer_2" data-name="Layer 2"><g id="Layer_1-2" data-name="Layer 1"><path d="M37.2,274.5l-6-8,2-3a141.32,141.32,0,0,1-7-27c-2-14,4-29,4-29l-3-1v-5c0-3-2.5-2.5-2.5-2.5V179a3.55,3.55,0,0,0-2-3L22.2,64.5l1-6,1-3h2a6.83,6.83,0,0,1,4-4l4-22a4.94,4.94,0,0,1,1-3,1.41,1.41,0,0,1,.84-.44A.92.92,0,0,0,36.9,25s0-2.92-.7-3.48a6.85,6.85,0,0,0-2-1l-7-12v-2c-2,0-8,1-8,1v-1l2-3L17.7,0l-3,3,2.5,3.5v1h-8v3l-5,8h-2s-3,4-2,5a9.05,9.05,0,0,0,2,1l1,1,4,26s2-1,4,4h3l2,9L14.7,176c-2,0-2,3-2,3l-.5,20.5a2,2,0,0,0-2,2v5l-2,1a104,104,0,0,1,4,27c0,14-8,29-8,29l3,3-6,8Zm-10-251,4.51,2.81-4,21L25.2,46.5Zm-17,24-4.89-23,19-.92-2.11,23Zm4,5-2-2s8-1,11-1,2,1,2,1l-1,2C22.2,51.5,14.2,52.5,14.2,52.5Z"/></g></g></svg>